<svg xmlns="http://www.w3.org/2000/svg" xmlns:xlink="http://www.w3.org/1999/xlink" viewBox="0 0 200 200" version="1.1" fill="currentColor"
     stroke-width="1.5" stroke="none" class="w-6 h-6" style="shape-rendering:geometricPrecision; text-rendering:geometricPrecision; image-rendering:optimizeQuality; fill-rule:evenodd; clip-rule:evenodd">
    <g><path d="M 82.5,1.5 C 132.668,-3.34164 168.834,16.6584 191,61.5C 206.495,106.02 196.995,144.186 162.5,176C 131.661,199.107 97.9944,204.107 61.5,191C 14.6551,167.481 -4.84493,129.648 3,77.5C 14.7442,36.5864 41.2442,11.253 82.5,1.5 Z M 90.5,16.5 C 126.101,14.5483 153.268,28.5483 172,58.5C 190.437,97.792 184.271,132.625 153.5,163C 117.5,189 81.5,189 45.5,163C 14.7294,132.625 8.56276,97.792 27,58.5C 41.8233,34.8428 62.99,20.8428 90.5,16.5 Z"/></g>
    <g><path d="M 66.5,46.5 C 93.8161,44.1494 105.149,56.4827 100.5,83.5C 93.8333,83.5 87.1667,83.5 80.5,83.5C 80.9101,77.3792 80.4101,71.3792 79,65.5C 74.3333,61.5 69.6667,61.5 65,65.5C 63.8525,77.4078 63.3525,89.4078 63.5,101.5C 63.6667,112.833 63.8333,124.167 64,135.5C 67.6814,138.36 71.8481,139.193 76.5,138C 77.3333,137.167 78.1667,136.333 79,135.5C 80.4321,127.946 80.9321,120.279 80.5,112.5C 76.5,112.5 72.5,112.5 68.5,112.5C 68.5,106.833 68.5,101.167 68.5,95.5C 79.1667,95.5 89.8333,95.5 100.5,95.5C 100.5,114.5 100.5,133.5 100.5,152.5C 94.8333,152.5 89.1667,152.5 83.5,152.5C 84.1869,146.401 82.8535,145.901 79.5,151C 67.8799,156.565 57.0466,155.398 47,147.5C 45.107,144.382 43.7736,141.049 43,137.5C 42.0489,112.792 42.3823,88.1251 44,63.5C 45.119,58.7609 47.619,54.9276 51.5,52C 56.2992,49.2375 61.2992,47.4042 66.5,46.5 Z"/></g>
    <g><path d="M 109.5,48.5 C 126.5,48.5 143.5,48.5 160.5,48.5C 160.5,54.5 160.5,60.5 160.5,66.5C 150.251,66.8194 140.084,66.4861 130,65.5C 129.5,73.8267 129.334,82.16 129.5,90.5C 139.167,90.5 148.833,90.5 158.5,90.5C 158.5,95.8333 158.5,101.167 158.5,106.5C 148.833,106.5 139.167,106.5 129.5,106.5C 129.5,121.833 129.5,137.167 129.5,152.5C 122.5,152.5 115.5,152.5 108.5,152.5C 108.174,117.76 108.507,83.0937 109.5,48.5 Z"/></g>
</svg>
