<svg xmlns="http://www.w3.org/2000/svg" viewBox="0 0 200 200" fill="currentColor"
     stroke-width="1.5" stroke="none" class="w-6 h-6" style="shape-rendering:geometricPrecision; text-rendering:geometricPrecision; image-rendering:optimizeQuality; fill-rule:evenodd; clip-rule:evenodd">
    <g><path d="M 88.5,-0.5 C 95.5,-0.5 102.5,-0.5 109.5,-0.5C 112.688,2.02958 115.855,4.69624 119,7.5C 122.419,12.6682 125.585,18.0016 128.5,23.5C 137.828,29.4251 146.328,36.4251 154,44.5C 157.46,49.0869 160.127,54.0869 162,59.5C 162.167,97.8377 162.667,136.171 163.5,174.5C 167.538,175.601 171.038,177.601 174,180.5C 175.035,186.46 172.535,190.293 166.5,192C 154.293,195.808 141.96,198.308 129.5,199.5C 110.167,199.5 90.8333,199.5 71.5,199.5C 59.055,198.244 46.7217,195.744 34.5,192C 28.4655,190.293 25.9655,186.46 27,180.5C 29.1951,178.07 31.8618,176.403 35,175.5C 35.3333,136.833 35.6667,98.1667 36,59.5C 39.9138,48.8703 46.4138,40.0369 55.5,33C 61.2304,29.9376 66.3971,26.1043 71,21.5C 74.7218,12.3378 80.5551,5.0045 88.5,-0.5 Z M 48.5,59.5 C 51.3888,52.0951 56.0555,45.9285 62.5,41C 67.9402,37.8913 73.1068,34.3913 78,30.5C 81.2072,23.9137 85.0405,17.747 89.5,12C 95.8333,8.66667 102.167,8.66667 108.5,12C 112.959,17.747 116.793,23.9137 120,30.5C 129.582,36.3008 138.248,43.3008 146,51.5C 147.626,53.9171 149.126,56.4171 150.5,59C 149.833,59.6667 149.167,59.6667 148.5,59C 144.112,53.6387 138.445,50.6387 131.5,50C 119.783,49.7706 108.116,48.9373 96.5,47.5C 88.6057,47.3115 81.2724,49.1448 74.5,53C 65.5142,54.054 56.8476,56.2207 48.5,59.5 Z M 88.5,53.5 C 91.5184,53.3354 94.5184,53.502 97.5,54C 95.6487,55.6837 93.982,57.5171 92.5,59.5C 92.9767,60.4776 93.6433,61.3109 94.5,62C 94,62.1667 93.5,62.3333 93,62.5C 90.6233,59.6243 87.7899,57.291 84.5,55.5C 85.9492,54.8281 87.2825,54.1614 88.5,53.5 Z M 112.5,56.5 C 114.337,56.6395 114.67,57.3061 113.5,58.5C 112.702,58.0431 112.369,57.3764 112.5,56.5 Z M 128.5,56.5 C 130.337,56.6395 130.67,57.3061 129.5,58.5C 128.702,58.0431 128.369,57.3764 128.5,56.5 Z M 70.5,58.5 C 72.9892,58.2978 75.3225,58.7978 77.5,60C 74.7759,60.2695 72.1092,60.7695 69.5,61.5C 68.6919,61.1924 68.0253,60.6924 67.5,60C 68.7375,59.7679 69.7375,59.2679 70.5,58.5 Z M 106.5,58.5 C 110.431,60.7676 114.598,62.7676 119,64.5C 121.893,63.2518 124.893,62.2518 128,61.5C 128.414,61.9574 128.914,62.2907 129.5,62.5C 131.429,61.6198 133.263,60.6198 135,59.5C 139.307,60.2575 139.474,61.7575 135.5,64C 125.357,68.8202 115.357,68.6535 105.5,63.5C 104.833,62.5 104.167,61.5 103.5,60.5C 104.602,59.8243 105.602,59.1577 106.5,58.5 Z M 117.5,58.5 C 118.675,58.281 119.675,58.6143 120.5,59.5C 118.948,60.7979 117.948,60.4646 117.5,58.5 Z M 62.5,63.5 C 68.0778,65.7097 73.7444,65.7097 79.5,63.5C 80.9489,61.7506 82.2823,61.5839 83.5,63C 77.1834,66.6984 70.5167,67.365 63.5,65C 62.944,64.6174 62.6107,64.1174 62.5,63.5 Z M 51.5,66.5 C 52.8734,66.3433 54.2068,66.51 55.5,67C 60.0071,71.6135 65.5071,73.4469 72,72.5C 77.3144,73.0794 82.1477,71.9128 86.5,69C 90.5663,68.9966 94.5663,68.83 98.5,68.5C 104.415,73.737 111.415,76.0703 119.5,75.5C 129.316,75.9993 137.816,72.9993 145,66.5C 147.245,67.1371 149.412,67.9704 151.5,69C 151.002,70.1581 150.169,70.9915 149,71.5C 132.417,76.7055 115.417,79.0389 98,78.5C 79.9187,79.2688 62.4187,76.6021 45.5,70.5C 47.2187,68.6478 49.2187,67.3145 51.5,66.5 Z M 46.5,79.5 C 63.3017,85.1165 80.635,87.4499 98.5,86.5C 116.513,87.4179 134.013,85.0846 151,79.5C 151.832,88.8511 151.665,98.1845 150.5,107.5C 149.264,106.754 147.93,106.421 146.5,106.5C 146.201,103.358 144.534,101.191 141.5,100C 137.339,98.2625 133.005,97.2625 128.5,97C 123.414,91.0772 116.914,88.2438 109,88.5C 105.111,88.8444 101.278,89.511 97.5,90.5C 85.6234,86.2209 73.9567,86.7209 62.5,92C 58.3578,95.1203 56.5245,99.287 57,104.5C 53.8797,105.573 50.7131,106.573 47.5,107.5C 46.5017,98.1904 46.1684,88.8571 46.5,79.5 Z M 104.5,96.5 C 109.882,94.9742 115.216,95.4742 120.5,98C 116.218,98.4721 112.885,100.472 110.5,104C 109.427,105.416 109.427,106.75 110.5,108C 109.552,108.483 108.552,108.649 107.5,108.5C 107.665,105.15 107.498,101.817 107,98.5C 106.292,97.6195 105.458,96.9528 104.5,96.5 Z M 72.5,96.5 C 78.5092,96.3338 84.5092,96.5005 90.5,97C 92.9494,97.7246 95.2827,98.7246 97.5,100C 98.4637,104.066 98.797,108.233 98.5,112.5C 87.8074,116.42 77.1408,116.42 66.5,112.5C 65.3861,111.277 65.2195,109.944 66,108.5C 70.6866,112.495 75.3532,112.495 80,108.5C 83,110.167 86,111.833 89,113.5C 93.2185,111.672 96.0518,108.672 97.5,104.5C 96.448,104.351 95.448,104.517 94.5,105C 92.9458,106.892 91.1124,108.392 89,109.5C 86.1006,107.966 83.2672,106.299 80.5,104.5C 77.3353,106.603 74.002,107.77 70.5,108C 63.3425,102.488 64.0092,98.6546 72.5,96.5 Z M 119.5,104.5 C 122.045,104.151 124.045,104.984 125.5,107C 122.743,107.584 120.077,107.25 117.5,106C 118.416,105.722 119.082,105.222 119.5,104.5 Z M 132.5,105.5 C 132.735,104.903 133.235,104.57 134,104.5C 139.975,105.512 139.975,106.512 134,107.5C 131.046,107.406 130.879,106.906 133.5,106C 133.272,105.601 132.938,105.435 132.5,105.5 Z M 116.5,109.5 C 123.835,112.093 131.169,112.093 138.5,109.5C 139.938,111.998 139.604,114.164 137.5,116C 130.757,118.158 124.09,117.991 117.5,115.5C 116.534,113.604 116.201,111.604 116.5,109.5 Z M 55.5,113.5 C 59.3441,118.78 64.6774,121.947 71.5,123C 78.5,123.667 85.5,123.667 92.5,123C 97.7142,121.726 102.381,119.393 106.5,116C 107.793,115.51 109.127,115.343 110.5,115.5C 111.099,118.168 112.766,120.002 115.5,121C 122.016,123.471 128.683,124.138 135.5,123C 106.298,128.389 77.2978,127.389 48.5,120C 46.3215,119.558 45.6548,118.558 46.5,117C 49.5711,115.704 52.5711,114.538 55.5,113.5 Z M 140.5,121.5 C 143.815,120.348 145.982,118.015 147,114.5C 148.845,115.05 150.345,116.05 151.5,117.5C 148.422,120.195 144.756,121.528 140.5,121.5 Z M 46.5,127.5 C 58.1723,131.391 70.1723,133.891 82.5,135C 79.7244,135.066 77.5577,136.232 76,138.5C 71.6903,144.311 67.1903,149.977 62.5,155.5C 57.2643,157.214 51.9309,158.547 46.5,159.5C 46.5,148.833 46.5,138.167 46.5,127.5 Z M 150.5,127.5 C 151.659,138.326 151.826,149.326 151,160.5C 149.141,157.873 147.641,155.039 146.5,152C 134.431,150.155 122.431,147.989 110.5,145.5C 109.26,141.944 107.927,138.444 106.5,135C 121.725,134.921 136.391,132.421 150.5,127.5 Z M 89.5,134.5 C 93.1817,134.335 96.8484,134.501 100.5,135C 96.615,135.22 93.7817,137.053 92,140.5C 90.878,138.593 90.0447,136.593 89.5,134.5 Z M 82.5,143.5 C 84.9752,143.747 84.9752,144.413 82.5,145.5C 81.537,145.03 81.537,144.363 82.5,143.5 Z M 98.5,145.5 C 101.269,153.8 104.269,162.134 107.5,170.5C 104.513,171.594 102.346,170.594 101,167.5C 99.2441,161.643 97.4108,155.81 95.5,150C 96.3146,148.357 97.3146,146.857 98.5,145.5 Z M 80.5,146.5 C 82.4776,150.703 84.311,155.037 86,159.5C 87.2445,163.542 88.2445,167.542 89,171.5C 81.5667,168.912 74.4001,165.745 67.5,162C 72.0444,156.96 76.3777,151.794 80.5,146.5 Z M 115.5,155.5 C 123.656,156.248 131.656,157.748 139.5,160C 131.921,160.184 124.421,160.684 117,161.5C 116.187,159.564 115.687,157.564 115.5,155.5 Z M 52.5,166.5 C 62.7862,170.303 73.1196,174.137 83.5,178C 73.044,177.888 62.7107,176.554 52.5,174C 49.3084,173.303 47.3084,171.47 46.5,168.5C 48.7857,168.405 50.7857,167.738 52.5,166.5 Z M 147.5,167.5 C 149.14,168.32 150.807,169.153 152.5,170C 150.91,171.046 149.41,172.213 148,173.5C 147.505,171.527 147.338,169.527 147.5,167.5 Z M 120.5,173.5 C 128.84,173.334 137.173,173.5 145.5,174C 134.968,176.648 124.301,177.981 113.5,178C 115.74,177.023 118.073,176.523 120.5,176.5C 120.5,175.5 120.5,174.5 120.5,173.5 Z"/></g>
</svg>
