<svg xmlns="http://www.w3.org/2000/svg"  viewBox="246.2197 33.4756 310.3315 552.1602" width="310.3315" height="552.1602" fill="currentColor"
     stroke-width="1.5" stroke="none" class="w-6 h-6">
    <path
        d="M 430.688 530.968 C 430.688 549.67 415.527 564.831 396.825 564.831 C 378.123 564.831 362.962 549.67 362.962 530.968 C 362.962 512.266 378.123 497.105 396.825 497.105 C 415.527 497.105 430.688 512.266 430.688 530.968 Z M 267.785 40 C 266.859 40.68 265.961 41.34 265.062 42 C 262.346 43.956 256.66 50 256 50 C 255.514 50.584 255.042 51.152 254.571 51.719 C 254.037 52.494 253.518 53.247 253 54 C 246.27 62.932 246.148 71.302 246.233 82.03 C 246.25 83.993 246.255 85.957 246.251 87.921 C 246.225 93.355 246.22 98.788 246.244 104.222 C 246.27 110.156 246.27 116.089 246.26 122.022 C 246.241 132.977 246.243 143.932 246.269 154.888 C 246.295 165.785 246.314 176.681 246.314 187.579 C 246.314 188.277 246.314 188.954 246.314 189.632 C 246.313 192.383 246.313 195.135 246.313 197.886 C 246.31 223.684 246.336 249.481 246.382 275.278 C 246.423 298.239 246.446 321.199 246.444 344.159 C 246.444 345.635 246.444 347.111 246.444 348.587 C 246.443 349.339 246.443 350.069 246.443 350.799 C 246.443 354.474 246.443 358.15 246.443 361.825 C 246.442 362.572 246.442 363.297 246.442 364.022 C 246.441 383.253 246.453 402.485 246.471 421.716 C 246.472 422.762 246.472 422.762 246.473 423.788 C 246.476 426.538 246.479 429.288 246.481 432.038 C 246.491 441.591 246.497 451.145 246.498 460.699 C 246.5 472.452 246.508 484.206 246.533 495.96 C 246.548 501.958 246.564 507.956 246.563 513.954 C 246.56 519.518 246.56 525.081 246.578 530.645 C 246.586 532.667 246.593 534.69 246.598 536.712 C 246.591 539.509 246.584 542.305 246.598 545.101 C 246.603 545.959 246.608 546.792 246.614 547.625 C 246.579 551.988 246.757 555.439 248.524 559.524 C 249.026 560.366 249.513 561.183 250 562 C 254.523 576.122 270 583.66 270 583 C 272.085 584.192 273.722 584.967 276.121 585.254 C 276.913 585.256 277.681 585.258 278.449 585.26 C 279.367 585.268 280.257 585.275 281.148 585.282 C 282.152 585.279 283.126 585.277 284.101 585.274 C 287.429 585.291 290.758 585.305 294.086 585.306 C 296.531 585.306 298.975 585.31 301.42 585.318 C 308.774 585.345 316.128 585.361 323.482 585.366 C 327.724 585.369 331.966 585.374 336.209 585.381 C 347.916 585.401 359.624 585.419 371.331 585.423 C 372.105 585.423 372.855 585.423 373.605 585.424 C 375.127 585.424 376.649 585.424 378.17 585.425 C 378.949 585.425 379.705 585.425 380.461 585.425 C 381.241 585.425 381.998 585.426 382.755 585.426 C 395.034 585.429 407.313 585.45 419.593 585.487 C 432.248 585.526 444.903 585.551 457.559 585.552 C 464.653 585.552 471.747 585.553 478.841 585.581 C 484.932 585.606 491.021 585.62 497.112 585.612 C 499.619 585.605 502.126 585.601 504.633 585.6 C 508.12 585.622 511.606 585.645 515.093 585.632 C 516.171 585.626 517.217 585.621 518.263 585.615 C 525.464 585.714 530.218 584.916 536.408 581.072 C 536.949 580.708 537.474 580.354 538 580 C 535.98 582.525 549.883 572.705 552 565 C 554.805 560.18 556.454 556.283 556.531 550.665 C 556.522 549.874 556.512 549.106 556.503 548.339 C 556.522 545.656 556.534 542.975 556.522 540.293 C 556.512 538.319 556.51 536.344 556.514 534.37 C 556.536 528.916 556.542 523.462 556.53 518.008 C 556.517 512.049 556.521 506.089 556.532 500.13 C 556.553 488.452 556.556 476.775 556.545 465.097 C 556.535 454.828 556.529 444.558 556.534 434.288 C 556.534 433.587 556.535 432.907 556.535 432.227 C 556.536 429.465 556.537 426.702 556.539 423.94 C 556.551 398.028 556.543 372.116 556.521 346.204 C 556.502 323.142 556.5 300.081 556.519 277.02 C 556.541 251.06 556.552 225.101 556.54 199.142 C 556.538 196.374 556.537 193.607 556.536 190.839 C 556.536 190.137 556.535 189.455 556.535 188.773 C 556.53 178.497 556.533 168.221 556.543 157.944 C 556.554 146.821 556.555 135.697 556.538 124.573 C 556.527 118.546 556.513 112.519 556.523 106.491 C 556.535 100.904 556.543 95.316 556.526 89.729 C 556.519 87.694 556.512 85.659 556.508 83.625 C 556.521 80.818 556.535 78.012 556.521 75.205 C 556.515 74.34 556.509 73.501 556.503 72.662 C 556.564 67.675 556.215 63.979 553.968 59.459 C 553.299 58.283 551.818 51.654 543 45 C 541.737 43.927 541.737 43.927 540.5 42.875 C 539.237 41.928 531.582 36.264 531 37 C 526.088 34.477 522.258 33.648 516.752 33.594 C 515.801 33.601 514.878 33.607 513.955 33.613 C 510.772 33.595 507.59 33.583 504.407 33.589 C 502.075 33.594 499.743 33.593 497.411 33.588 C 491.056 33.566 484.701 33.556 478.347 33.561 C 473.627 33.565 432.5 33.543 419.718 33.554 C 407.993 33.565 396.267 33.558 384.542 33.534 C 372.449 33.509 360.356 33.495 348.264 33.501 C 341.487 33.504 334.71 33.508 327.934 33.491 C 322.119 33.476 316.305 33.47 310.49 33.482 C 308.096 33.489 305.703 33.495 303.309 33.498 C 299.981 33.484 296.654 33.469 293.326 33.482 C 291.797 33.491 291.797 33.491 290.298 33.499 C 281.422 33.406 275.318 35.314 267.785 40 Z M 526 112 C 526 236.44 526 357.22 526 478 C 442.36 478 361.18 478 280 478 C 280 353.56 280 232.78 280 112 C 363.64 112 444.82 112 526 112 Z"
        transform="matrix(1, 0, 0, 1, -2.842170943040401e-14, 0)"></path>
    <g id="Layer_2"
       transform="matrix(0.22739601135253906, 0, 0, 0.22739601135253906, 295.2042541503906, 208.8177947998047)">
        <path d="M734.7,219c13.5-9.5,25.6-23.6,27.2-38.3c2.8-25.9-11.2-56.8-16.2-80.5c-8.2-38.8-43.5-53.2-89.3-51.2
			c-20.4,0.9-40.9,4.1-55.7,19.2c-17.8,18.1-16.6,39.6-24.7,61.8c-7.1,19.7-17.2,33.5-15,56c2.4,23.8,16.5,37.9,33.7,52.5l0,0
			c-3.4,4.7-3.7,22.8-5.7,29.7c-2.9,9.9-5.4,19.6-9.2,29.2c-9.3,23.4-24.9,40-44.3,55.6c-15.7,12.6-38.9,31.2-75.3,39.3
			c-51.1,11.3-118.9,12.9-146.9,12.7l-5.9,0c-19.8-2.2-35.3-8.7-42.2-28c-6.9-19.2-0.9-44.3,0.3-63.6c1.9-32.5,3.3-89.2-24.5-112.7
			c-24.9,22.5-29.1,65.1-38.7,97c-5,16.7-11.9,34.5-14.6,51.8c-2.5,16.1,1.9,28.6,6.6,44.5c-15.9,0-40.1-5-51.9,4
			c-14.7,11.1-24.3,36.7-39,50.5c-13.6,12.7-27.3,24.2-43.5,33.4c-12.1,6.8-50.1,15.4-50.1,32.7c0,28.8,89.8-11.1,105.9-16.7
			c36.9-12.9,91.9-26.3,115.6-23.7s49.8,16.4,73.4,37c20.2,17.6,41.6,34.1,64.5,48c48.8,29.8,102.7,44.8,159.8,46.7
			c49.8,1.6,96.6-14.9,143.8-28.4c22.7-6.5,47.1-8.6,63.7-27c15.5-17.1,26.9-41.5,35.2-62.9c31.9-82.9,20.1-196.5-34.4-269.7"></path>
        <path d="M734.7,219c13.5-9.5,25.6-23.6,27.2-38.3c2.8-25.9-11.2-56.8-16.2-80.5c-8.2-38.8-43.5-53.2-89.3-51.2
			c-20.4,0.9-40.9,4.1-55.7,19.2c-17.8,18.1-16.6,39.6-24.7,61.8c-7.1,19.7-17.2,33.5-15,56c2.4,23.8,16.5,37.9,33.7,52.5l0,0
			c-3.4,4.7-3.7,22.8-5.7,29.7c-2.9,9.9-5.4,19.6-9.2,29.2c-9.3,23.4-24.9,40-44.3,55.6c-15.7,12.6-38.9,31.2-75.3,39.3
			c-51.1,11.3-118.9,12.9-146.9,12.7l-5.9,0c-19.8-2.2-35.3-8.7-42.2-28c-6.9-19.2-0.9-44.3,0.3-63.6c1.9-32.5,3.3-89.2-24.5-112.7
			c-24.9,22.5-29.1,65.1-38.7,97c-5,16.7-11.9,34.5-14.6,51.8c-2.5,16.1,1.9,28.6,6.6,44.5c-15.9,0-40.1-5-51.9,4
			c-14.7,11.1-24.3,36.7-39,50.5c-13.6,12.7-27.3,24.2-43.5,33.4c-12.1,6.8-50.1,15.4-50.1,32.7c0,28.8,89.8-11.1,105.9-16.7
			c36.9-12.9,91.9-26.3,115.6-23.7s49.8,16.4,73.4,37c20.2,17.6,41.6,34.1,64.5,48c48.8,29.8,102.7,44.8,159.8,46.7
			c49.8,1.6,96.6-14.9,143.8-28.4c22.7-6.5,47.1-8.6,63.7-27c15.5-17.1,26.9-41.5,35.2-62.9c31.9-82.9,20.1-196.5-34.4-269.7"></path>
        <path d="M602.3,455c-18.6,13-34.6,25.3-31.7,50.3c2.2,18.6,12.7,36.1,13.9,55c3,46.8-49.9,57.7-79.5,82.8
		c-57.7,48.8,48.3,33.2,75.8,29.9c51.6-6.1,79.5-15.4,104.9-52.1c17.4-25.1,10.8-37.9-4.7-58c-14.7-19-18.4-46.7-10.7-68.7"></path>
        <path d="M749.2,535.3c25.2,33.6,33.4,42,77.9,42c24.4,0,98.2-3.4,97.9-39.3c-0.3-37.3-65.2-24.6-86.7-26.7
		c-46.1-4.6-49.8-26.1-54.3-67.4c0,0-9,36.9-17.9,57.3C757.2,521.5,749.2,535.3,749.2,535.3z"></path>
        <path d="M218.3,235.5c2.6,0,2.6-4,0-4C215.7,231.5,215.7,235.5,218.3,235.5L218.3,235.5z"></path>
        <path d="M217.9,235.7c2.6,0,2.6-4,0-4C215.4,231.7,215.4,235.7,217.9,235.7L217.9,235.7z"></path>
        <path d="M218.1,235.8c2.6,0,2.6-4,0-4C215.5,231.8,215.5,235.8,218.1,235.8L218.1,235.8z"></path>
    </g>
</svg>
