<svg preserveAspectRatio="none" xmlns="http://www.w3.org/2000/svg" viewBox="0 0 32 32" fill="currentColor" stroke-width="1.5" stroke="none" class="w-6 h-6">
<path d="M16 1c-8.438 0-15 3.75-15 7.5 0 1.875 0.937 2.813 1.875 3.75-0.937 0.937-1.875 3.401-1.875 4.688v10.312c0 1.875 1.875 3.75 3.75 3.75h22.5c1.875 0 3.75-0.937 3.75-3.75v-11.25c0-1.185-0.937-2.813-1.875-3.75 0.937-0.937 1.875-1.875 1.875-3.75 0.001-3.75-6.562-7.5-14.999-7.5zM16 4.75c6.562 0 11.25 0.937 11.25 3.75 0 0.937-0.937 2.813-1.875 3.75 0.937 0.937 1.875 3.75 1.875 4.688v10.312h-22.5v-10.312c0-0.937 0.937-3.75 1.875-4.688-0.937-0.937-1.875-2.813-1.875-3.75 0-2.813 4.687-3.75 11.249-3.75zM16.001 6.719l0.663 0.663c0.366 0.366 0.366 0.96 0 1.325l-7.955 7.955c-0.366 0.366-0.96 0.366-1.325 0l-0.663-0.663c-0.366-0.366-0.366-0.96 0-1.325l7.955-7.955c0.366-0.365 0.959-0.365 1.325 0zM22.298 9.039l0.663 0.663c0.366 0.366 0.366 0.96 0 1.325l-11.932 11.933c-0.366 0.366-0.96 0.366-1.325 0l-0.663-0.663c-0.366-0.366-0.366-0.96 0-1.325l11.933-11.933c0.366-0.366 0.959-0.366 1.325-0.001zM24.619 15.336l0.663 0.663c0.366 0.366 0.366 0.96 0 1.325l-7.955 7.955c-0.366 0.366-0.96 0.366-1.325 0l-0.663-0.663c-0.366-0.366-0.366-0.96 0-1.326l7.955-7.955c0.366-0.366 0.959-0.366 1.326 0z"></path>
</svg>
