<svg preserveAspectRatio="none" xmlns="http://www.w3.org/2000/svg" viewBox="0 0 24 24" fill="none" stroke-width="1" stroke="none" class="w-6 h-6">
<path d="M11.2738628,1.24712328 C12.052307,1.24712328 12.6833607,1.87817699 12.6833607,2.65662118 L12.6827291,3.03312328 L13.0765681,2.90107348 C13.5714095,2.7343376 14.1077238,3.00031968 14.2744597,3.49516107 C14.3544192,3.73246611 14.3369726,3.99179963 14.2259483,4.2162563 L13.7817291,5.11312328 L13.8708317,5.0843773 C14.3289757,4.96521428 14.813805,5.20576744 14.989186,5.65781703 C15.1240269,6.00537318 15.042052,6.39971881 14.7798704,6.66474359 L13.873156,7.57993702 C13.7594388,7.53123862 13.6351314,7.50442794 13.5062586,7.50373294 C12.9840891,7.50091691 12.5585043,7.92193604 12.5556883,8.44410549 L12.5556883,8.44410549 L12.4847852,21.591484 C12.4830412,21.9148704 12.3161354,22.2149328 12.0423042,22.3869742 L12.0423042,22.3869742 L11.1992365,22.9161233 L10.3560151,22.3869742 C10.0821838,22.2149328 9.91527798,21.9148704 9.91353398,21.591484 L9.86323653,12.3421233 L9.86372908,8.83212328 L9.84423653,8.81312328 L9.84263095,8.44410549 C9.83981492,7.92193604 9.41423011,7.50091691 8.89206066,7.50373294 C8.79027074,7.50428189 8.69132897,7.52112335 8.59820417,7.55217399 L7.59536609,6.5390186 C7.23040317,6.17009789 7.23361159,5.57516766 7.6025323,5.21020474 C7.88122028,4.93450653 8.30178457,4.86079684 8.65762143,5.02528582 L8.67772908,5.03512328 L8.27366439,4.2162563 C8.04215037,3.74820702 8.23390009,3.18109893 8.70194936,2.94958491 C8.92640603,2.83856057 9.18573955,2.82111399 9.42304458,2.90107348 L9.86372908,3.04912328 L9.86436489,2.65662118 C9.86436489,1.87817699 10.4954186,1.24712328 11.2738628,1.24712328 Z M11.2498063,4.85989572 L11.2498063,6.20319402 M3.22149157,6.95890356 C2.70252878,7.47786636 2.70252878,8.3192713 3.22149157,8.83823409 L3.86565649,9.48116282 L3.39424548,9.71508871 C2.9264397,9.94709434 2.73528591,10.5144036 2.96729155,10.9822094 C3.07855165,11.2065493 3.27426474,11.3775892 3.51148563,11.4577979 L4.45821197,11.7778456 L4.3764452,11.8205469 C3.9682275,12.0602426 3.79549819,12.5731654 3.99113242,13.0168259 C4.14154485,13.3579321 4.47835434,13.5788115 4.85114555,13.580822 L7.98095833,13.5977008 L8.02182035,21.1746471 C8.0274095,22.21103 8.86618255,23.0498031 9.90256545,23.0553922 L11.4330458,23.063646 L10.3560151,22.3869742 C10.0821838,22.2149328 9.91527798,21.9148704 9.91353398,21.591484 L9.84263095,8.44410549 C9.83981492,7.92193604 9.41423011,7.50091691 8.89206066,7.50373294 C8.50083962,7.50584277 8.15169105,7.74862323 8.01316716,8.11379356 L7.72038594,7.24889762 C7.55313025,6.75423167 7.01653675,6.48881322 6.5218708,6.6560689 C6.28464991,6.73627766 6.08893682,6.90731757 5.97767672,7.13165746 L5.7444392,7.6023801 L5.10082211,6.95890356 C4.58185931,6.43994077 3.74045437,6.43994077 3.22149157,6.95890356 Z M6.07105759,9.80846958 L7.02091292,10.7583249 M8.45486699,15.5055228 L14.0928586,15.5055228 M19.1768276,6.95890356 C19.6957904,7.47786636 19.6957904,8.3192713 19.1768276,8.83823409 L18.5326627,9.48116282 L19.0040737,9.71508871 C19.4718795,9.94709434 19.6630333,10.5144036 19.4310277,10.9822094 C19.3197676,11.2065493 19.1240545,11.3775892 18.8868336,11.4577979 L17.9401072,11.7778456 L18.021874,11.8205469 C18.4300917,12.0602426 18.602821,12.5731654 18.4071868,13.0168259 C18.2567744,13.3579321 17.9199649,13.5788115 17.5471737,13.580822 L14.4173609,13.5977009 L14.3764989,21.1746471 C14.3709097,22.21103 13.5321367,23.0498031 12.4957538,23.0553922 L10.9652734,23.063646 L12.0423042,22.3869742 C12.3161354,22.2149328 12.4830412,21.9148704 12.4847852,21.591484 L12.5556883,8.44410549 C12.5585043,7.92193604 12.9840891,7.50091691 13.5062586,7.50373294 C13.8974796,7.50584277 14.2466282,7.74862323 14.3851521,8.11379356 L14.6779333,7.24889762 C14.845189,6.75423167 15.3817825,6.48881322 15.8764484,6.6560689 C16.1136693,6.73627767 16.3093824,6.90731757 16.4206425,7.13165746 L16.65388,7.6023801 L17.2974971,6.95890356 C17.8164599,6.43994077 18.6578648,6.43994077 19.1768276,6.95890356 Z M16.3272616,9.80846958 L15.3774063,10.7583249" id="Combined-Shape" stroke="#000000" transform="translate(11.199160, 12.729215) rotate(-315.000000) translate(-11.199160, -12.729215) "> </path>
</svg>
