<svg xmlns="http://www.w3.org/2000/svg" xmlns:xlink="http://www.w3.org/1999/xlink" version="1.1" viewBox="0 0 200 200" fill="currentColor"
     stroke-width="1.5" stroke="none" class="w-6 h-6" style="shape-rendering:geometricPrecision; text-rendering:geometricPrecision; image-rendering:optimizeQuality; fill-rule:evenodd; clip-rule:evenodd">
    <g><path d="M 98.5,42.5 C 100.468,48.3398 101.802,54.3398 102.5,60.5C 102.154,61.6956 101.654,61.6956 101,60.5C 100.126,64.2876 98.9593,67.9543 97.5,71.5C 96.6618,71.8417 96.3284,72.5084 96.5,73.5C 94.2524,77.2543 91.419,80.5876 88,83.5C 87.5045,81.5273 87.3379,79.5273 87.5,77.5C 88.5159,71.5204 89.1826,65.3537 89.5,59C 87.703,49.6823 86.0363,40.349 84.5,31C 86.5123,27.9951 88.3456,24.8285 90,21.5C 91.4399,18.6645 93.2733,18.1645 95.5,20C 92.4036,27.9732 93.4036,35.4732 98.5,42.5 Z"/></g>
    <g><path d="M 174.5,37.5 C 173.833,36.1667 173.833,36.1667 174.5,37.5 Z"/></g>
    <g><path d="M 69.5,68.5 C 67.7185,73.3963 65.3852,78.063 62.5,82.5C 61.8333,82.5 61.5,82.8333 61.5,83.5C 60.8826,83.6107 60.3826,83.944 60,84.5C 58.7325,82.5764 58.7325,80.9097 60,79.5C 60.8265,75.5408 61.3265,71.5408 61.5,67.5C 60.137,60.132 58.8036,52.7986 57.5,45.5C 58.3382,45.1583 58.6716,44.4916 58.5,43.5C 59.3382,43.1583 59.6716,42.4916 59.5,41.5C 60.5361,39.2783 62.2028,38.1116 64.5,38C 63.3832,41.0731 63.2165,44.2397 64,47.5C 64.5176,51.0341 66.1843,54.3674 69,57.5C 69.4986,61.1516 69.6653,64.8183 69.5,68.5 Z"/></g>
    <g><path d="M 123.5,62.5 C 121.1,63.9272 120.433,63.4272 121.5,61C 115.111,52.0498 115.778,44.2165 123.5,37.5C 123.551,40.6651 123.718,43.9984 124,47.5C 125.362,51.058 126.862,54.558 128.5,58C 127.239,59.9618 125.572,61.4618 123.5,62.5 Z"/></g>
    <g><path d="M 174.5,37.5 C 183.108,36.2759 186.941,39.9425 186,48.5C 183.21,51.465 180.043,53.7984 176.5,55.5C 174.973,55.427 173.973,56.0937 173.5,57.5C 167.696,59.3627 163.029,62.0293 159.5,65.5C 159.167,64.1667 158.833,64.1667 158.5,65.5C 152.35,67.7396 146.684,70.7396 141.5,74.5C 136.333,76.9157 131.333,79.5824 126.5,82.5C 125.508,82.3284 124.842,82.6618 124.5,83.5C 121.331,84.9166 118.331,86.5832 115.5,88.5C 119.116,88.1007 122.45,87.1007 125.5,85.5C 129.427,85.0743 133.093,84.0743 136.5,82.5C 140.427,82.0743 144.093,81.0743 147.5,79.5C 151.427,79.0743 155.093,78.0743 158.5,76.5C 162.116,76.1007 165.45,75.1007 168.5,73.5C 172.479,73.2576 176.146,72.2576 179.5,70.5C 182.313,70.4519 184.979,69.7853 187.5,68.5C 189.795,69.4318 192.129,70.2652 194.5,71C 194.167,71.3333 193.833,71.6667 193.5,72C 195.993,75.3084 196.159,78.8084 194,82.5C 190.952,84.1674 187.952,85.834 185,87.5C 184.275,86.9415 183.442,86.6082 182.5,86.5C 176.002,88.0396 169.668,89.7063 163.5,91.5C 156.59,92.7738 149.59,94.4404 142.5,96.5C 139.219,96.4203 136.219,97.087 133.5,98.5C 112.267,102.905 91.4338,107.572 71,112.5C 66.8847,114.139 63.0513,116.139 59.5,118.5C 58.5084,118.328 57.8417,118.662 57.5,119.5C 51.9946,121.749 46.9946,124.749 42.5,128.5C 42.1667,127.167 41.8333,127.167 41.5,128.5C 40.5084,128.328 39.8417,128.662 39.5,129.5C 34.0157,131.407 29.0157,134.073 24.5,137.5C 23.5084,137.328 22.8417,137.662 22.5,138.5C 19.6812,140.097 16.6812,140.597 13.5,140C 12.8333,138.333 12.1667,136.667 11.5,135C 13.0664,134.392 14.3998,133.558 15.5,132.5C 16.7095,132.068 17.7095,131.401 18.5,130.5C 20.0269,130.573 21.0269,129.906 21.5,128.5C 25.8446,126.993 29.8446,124.827 33.5,122C 29.2685,122.012 25.2685,122.846 21.5,124.5C 16.6285,125.259 11.7952,126.259 7,127.5C 6.09789,127.257 5.26456,126.923 4.5,126.5C 2.71546,124.823 2.04879,122.989 2.5,121C 11.2743,118.148 19.941,115.314 28.5,112.5C 32.4268,112.074 36.0935,111.074 39.5,109.5C 43.4268,109.074 47.0935,108.074 50.5,106.5C 58.5916,105.584 65.9249,102.917 72.5,98.5C 74.509,97.9442 76.509,96.6108 78.5,94.5C 83.5003,92.3357 88.167,89.669 92.5,86.5C 99.5062,82.9998 106.173,78.9998 112.5,74.5C 120.61,70.4851 127.944,66.1517 134.5,61.5C 141.506,57.9998 148.173,53.9998 154.5,49.5C 161.506,45.9998 168.173,41.9998 174.5,37.5 Z M 124.5,83.5 C 124.328,84.4916 124.662,85.1583 125.5,85.5C 122.45,87.1007 119.116,88.1007 115.5,88.5C 118.331,86.5832 121.331,84.9166 124.5,83.5 Z"/></g>
    <g><path d="M 59.5,41.5 C 58.8333,40.1667 58.8333,40.1667 59.5,41.5 Z"/></g>
    <g><path d="M 98.5,41.5 C 99.8333,42.1667 99.8333,42.1667 98.5,41.5 Z"/></g>
    <g><path d="M 58.5,43.5 C 57.8333,42.1667 57.8333,42.1667 58.5,43.5 Z"/></g>
    <g><path d="M 57.5,45.5 C 56.8333,44.1667 56.8333,44.1667 57.5,45.5 Z"/></g>
    <g><path d="M 154.5,49.5 C 153.833,48.1667 153.833,48.1667 154.5,49.5 Z"/></g>
    <g><path d="M 176.5,55.5 C 177.833,56.1667 177.833,56.1667 176.5,55.5 Z"/></g>
    <g><path d="M 173.5,57.5 C 174.833,58.1667 174.833,58.1667 173.5,57.5 Z"/></g>
    <g><path d="M 134.5,61.5 C 133.833,60.1667 133.833,60.1667 134.5,61.5 Z"/></g>
    <g><path d="M 123.5,62.5 C 124.833,63.1667 124.833,63.1667 123.5,62.5 Z"/></g>
    <g><path d="M 158.5,65.5 C 158.833,65.5 159.167,65.5 159.5,65.5C 159.315,66.1701 158.981,66.1701 158.5,65.5 Z"/></g>
    <g><path d="M 69.5,68.5 C 70.8333,69.1667 70.8333,69.1667 69.5,68.5 Z"/></g>
    <g><path d="M 179.5,70.5 C 178.833,69.1667 178.833,69.1667 179.5,70.5 Z"/></g>
    <g><path d="M 97.5,71.5 C 98.8333,72.1667 98.8333,72.1667 97.5,71.5 Z"/></g>
    <g><path d="M 168.5,73.5 C 167.833,72.1667 167.833,72.1667 168.5,73.5 Z"/></g>
    <g><path d="M 96.5,73.5 C 97.8333,74.1667 97.8333,74.1667 96.5,73.5 Z"/></g>
    <g><path d="M 112.5,74.5 C 111.833,73.1667 111.833,73.1667 112.5,74.5 Z"/></g>
    <g><path d="M 141.5,74.5 C 142.833,75.1667 142.833,75.1667 141.5,74.5 Z"/></g>
    <g><path d="M 158.5,76.5 C 157.833,75.1667 157.833,75.1667 158.5,76.5 Z"/></g>
    <g><path d="M 87.5,77.5 C 86.8333,76.1667 86.8333,76.1667 87.5,77.5 Z"/></g>
    <g><path d="M 147.5,79.5 C 146.833,78.1667 146.833,78.1667 147.5,79.5 Z"/></g>
    <g><path d="M 136.5,82.5 C 135.833,81.1667 135.833,81.1667 136.5,82.5 Z"/></g>
    <g><path d="M 62.5,82.5 C 63.8333,83.1667 63.8333,83.1667 62.5,82.5 Z"/></g>
    <g><path d="M 126.5,82.5 C 127.833,83.1667 127.833,83.1667 126.5,82.5 Z"/></g>
    <g><path d="M 61.5,83.5 C 61.8333,83.5 62.1667,83.5 62.5,83.5C 62.3147,84.1701 61.9813,84.1701 61.5,83.5 Z"/></g>
    <g><path d="M 92.5,86.5 C 91.8333,85.1667 91.8333,85.1667 92.5,86.5 Z"/></g>
    <g><path d="M 163.5,91.5 C 164.833,92.1667 164.833,92.1667 163.5,91.5 Z"/></g>
    <g><path d="M 78.5,94.5 C 77.8333,93.1667 77.8333,93.1667 78.5,94.5 Z"/></g>
    <g><path d="M 62.5,98.5 C 51.5131,100.723 40.8464,103.723 30.5,107.5C 26.5732,107.926 22.9065,108.926 19.5,110.5C 18.2502,110.423 17.4169,109.756 17,108.5C 16.4695,104.256 15.9695,100.256 15.5,96.5C 32.5,95.1667 49.5,95.1667 66.5,96.5C 66.1924,97.3081 65.6924,97.9747 65,98.5C 64.0228,97.2264 63.1894,97.2264 62.5,98.5 Z"/></g>
    <g><path d="M 142.5,96.5 C 143.833,97.1667 143.833,97.1667 142.5,96.5 Z"/></g>
    <g><path d="M 164.5,114.5 C 163.392,117.802 162.059,121.135 160.5,124.5C 160.833,125.167 161.167,125.833 161.5,126.5C 157.089,132.241 153.089,138.241 149.5,144.5C 148.833,144.5 148.5,144.833 148.5,145.5C 147.833,145.5 147.5,145.833 147.5,146.5C 146.833,146.5 146.5,146.833 146.5,147.5C 145.833,147.5 145.5,147.833 145.5,148.5C 144.833,148.5 144.5,148.833 144.5,149.5C 143.833,149.5 143.5,149.833 143.5,150.5C 142.833,150.5 142.5,150.833 142.5,151.5C 141.833,151.5 141.5,151.833 141.5,152.5C 140.833,152.5 140.5,152.833 140.5,153.5C 139.833,153.5 139.5,153.833 139.5,154.5C 136.385,156.231 133.385,158.231 130.5,160.5C 132.623,162.745 133.623,165.412 133.5,168.5C 132.833,168.5 132.5,168.833 132.5,169.5C 131.833,169.5 131.5,169.833 131.5,170.5C 130.833,170.5 130.5,170.833 130.5,171.5C 129.833,171.5 129.5,171.833 129.5,172.5C 128.833,172.5 128.5,172.833 128.5,173.5C 124.158,175.387 119.825,177.054 115.5,178.5C 95.858,182.059 76.5247,180.893 57.5,175C 54.1147,172.972 51.1147,171.139 48.5,169.5C 47.9297,165.776 49.2631,162.609 52.5,160C 48.4577,157.984 44.791,155.484 41.5,152.5C 40.5,150.833 39.1667,149.5 37.5,148.5C 36.5,146.833 35.1667,145.5 33.5,144.5C 32.5244,143.185 31.5244,141.852 30.5,140.5C 31.9014,139.479 33.2347,138.479 34.5,137.5C 40.3327,134.751 45.9994,131.751 51.5,128.5C 56.6665,126.084 61.6665,123.418 66.5,120.5C 67.4916,120.672 68.1583,120.338 68.5,119.5C 75.5899,117.489 82.5899,115.489 89.5,113.5C 107.408,110.015 124.742,106.015 141.5,101.5C 144.727,101.324 147.727,100.657 150.5,99.5C 155.832,98.5005 161.165,97.5005 166.5,96.5C 166.114,102.534 165.447,108.534 164.5,114.5 Z"/></g>
    <g><path d="M 72.5,98.5 C 71.8333,97.1667 71.8333,97.1667 72.5,98.5 Z"/></g>
    <g><path d="M 62.5,98.5 C 63.8333,99.1667 63.8333,99.1667 62.5,98.5 Z"/></g>
    <g><path d="M 133.5,98.5 C 134.833,99.1667 134.833,99.1667 133.5,98.5 Z"/></g>
    <g><path d="M 150.5,99.5 C 149.833,98.1667 149.833,98.1667 150.5,99.5 Z"/></g>
    <g><path d="M 141.5,101.5 C 140.833,100.167 140.833,100.167 141.5,101.5 Z"/></g>
    <g><path d="M 50.5,106.5 C 49.8333,105.167 49.8333,105.167 50.5,106.5 Z"/></g>
    <g><path d="M 30.5,107.5 C 31.8333,108.167 31.8333,108.167 30.5,107.5 Z"/></g>
    <g><path d="M 39.5,109.5 C 38.8333,108.167 38.8333,108.167 39.5,109.5 Z"/></g>
    <g><path d="M 19.5,110.5 C 20.8333,111.167 20.8333,111.167 19.5,110.5 Z"/></g>
    <g><path d="M 28.5,112.5 C 27.8333,111.167 27.8333,111.167 28.5,112.5 Z"/></g>
    <g><path d="M 89.5,113.5 C 88.8333,112.167 88.8333,112.167 89.5,113.5 Z"/></g>
    <g><path d="M 164.5,114.5 C 165.833,115.167 165.833,115.167 164.5,114.5 Z"/></g>
    <g><path d="M 59.5,118.5 C 60.8333,119.167 60.8333,119.167 59.5,118.5 Z"/></g>
    <g><path d="M 68.5,119.5 C 67.8333,118.167 67.8333,118.167 68.5,119.5 Z"/></g>
    <g><path d="M 57.5,119.5 C 58.8333,120.167 58.8333,120.167 57.5,119.5 Z"/></g>
    <g><path d="M 66.5,120.5 C 65.8333,119.167 65.8333,119.167 66.5,120.5 Z"/></g>
    <g><path d="M 21.5,124.5 C 22.8333,125.167 22.8333,125.167 21.5,124.5 Z"/></g>
    <g><path d="M 4.5,126.5 C 3.83333,127.167 3.83333,127.167 4.5,126.5 Z"/></g>
    <g><path d="M 21.5,128.5 C 20.8333,127.167 20.8333,127.167 21.5,128.5 Z"/></g>
    <g><path d="M 51.5,128.5 C 50.8333,127.167 50.8333,127.167 51.5,128.5 Z"/></g>
    <g><path d="M 41.5,128.5 C 41.8333,128.5 42.1667,128.5 42.5,128.5C 42.3147,129.17 41.9813,129.17 41.5,128.5 Z"/></g>
    <g><path d="M 18.5,130.5 C 17.8333,129.167 17.8333,129.167 18.5,130.5 Z"/></g>
    <g><path d="M 39.5,129.5 C 40.8333,130.167 40.8333,130.167 39.5,129.5 Z"/></g>
    <g><path d="M 15.5,132.5 C 14.8333,131.167 14.8333,131.167 15.5,132.5 Z"/></g>
    <g><path d="M 34.5,137.5 C 33.8333,136.167 33.8333,136.167 34.5,137.5 Z"/></g>
    <g><path d="M 24.5,137.5 C 25.8333,138.167 25.8333,138.167 24.5,137.5 Z"/></g>
    <g><path d="M 22.5,138.5 C 23.8333,139.167 23.8333,139.167 22.5,138.5 Z"/></g>
    <g><path d="M 33.5,144.5 C 32.8333,145.167 32.8333,145.167 33.5,144.5 Z"/></g>
    <g><path d="M 149.5,144.5 C 150.833,145.167 150.833,145.167 149.5,144.5 Z"/></g>
    <g><path d="M 148.5,145.5 C 148.833,145.5 149.167,145.5 149.5,145.5C 149.315,146.17 148.981,146.17 148.5,145.5 Z"/></g>
    <g><path d="M 147.5,146.5 C 147.833,146.5 148.167,146.5 148.5,146.5C 148.315,147.17 147.981,147.17 147.5,146.5 Z"/></g>
    <g><path d="M 146.5,147.5 C 146.833,147.5 147.167,147.5 147.5,147.5C 147.315,148.17 146.981,148.17 146.5,147.5 Z"/></g>
    <g><path d="M 37.5,148.5 C 36.8333,149.167 36.8333,149.167 37.5,148.5 Z"/></g>
    <g><path d="M 145.5,148.5 C 145.833,148.5 146.167,148.5 146.5,148.5C 146.315,149.17 145.981,149.17 145.5,148.5 Z"/></g>
    <g><path d="M 144.5,149.5 C 144.833,149.5 145.167,149.5 145.5,149.5C 145.315,150.17 144.981,150.17 144.5,149.5 Z"/></g>
    <g><path d="M 143.5,150.5 C 143.833,150.5 144.167,150.5 144.5,150.5C 144.315,151.17 143.981,151.17 143.5,150.5 Z"/></g>
    <g><path d="M 142.5,151.5 C 142.833,151.5 143.167,151.5 143.5,151.5C 143.315,152.17 142.981,152.17 142.5,151.5 Z"/></g>
    <g><path d="M 41.5,152.5 C 40.8333,153.167 40.8333,153.167 41.5,152.5 Z"/></g>
    <g><path d="M 141.5,152.5 C 141.833,152.5 142.167,152.5 142.5,152.5C 142.315,153.17 141.981,153.17 141.5,152.5 Z"/></g>
    <g><path d="M 140.5,153.5 C 140.833,153.5 141.167,153.5 141.5,153.5C 141.315,154.17 140.981,154.17 140.5,153.5 Z"/></g>
    <g><path d="M 139.5,154.5 C 139.833,154.5 140.167,154.5 140.5,154.5C 140.315,155.17 139.981,155.17 139.5,154.5 Z"/></g>
    <g><path d="M 133.5,168.5 C 134.833,169.167 134.833,169.167 133.5,168.5 Z"/></g>
    <g><path d="M 132.5,169.5 C 132.833,169.5 133.167,169.5 133.5,169.5C 133.315,170.17 132.981,170.17 132.5,169.5 Z"/></g>
    <g><path d="M 131.5,170.5 C 131.833,170.5 132.167,170.5 132.5,170.5C 132.315,171.17 131.981,171.17 131.5,170.5 Z"/></g>
    <g><path d="M 130.5,171.5 C 130.833,171.5 131.167,171.5 131.5,171.5C 131.315,172.17 130.981,172.17 130.5,171.5 Z"/></g>
    <g><path d="M 129.5,172.5 C 129.833,172.5 130.167,172.5 130.5,172.5C 130.315,173.17 129.981,173.17 129.5,172.5 Z"/></g>
    <g><path d="M 128.5,173.5 C 128.833,173.5 129.167,173.5 129.5,173.5C 129.315,174.17 128.981,174.17 128.5,173.5 Z"/></g>
    <g><path d="M 115.5,178.5 C 116.833,179.167 116.833,179.167 115.5,178.5 Z"/></g>
</svg>
