<svg preserveAspectRatio="none" xmlns="http://www.w3.org/2000/svg" viewBox="0 0 24 24" fill="none" stroke-width="1.5" stroke="none" class="w-6 h-6">
<path d="M4 15.7059H20V19H4V15.7059ZM4 15.7059H20V10.4067C20 10.4035 19.9974 10.4009 19.9941 10.4009H4.00587C4.00263 10.4009 4 10.4035 4 10.4067V15.7059ZM15.4676 5C16.4366 5 17.222 5.7835 17.222 6.75L17.216 6.613L17.2521 6.60333C18.7897 7.12298 19.9117 8.52702 19.995 10.2006L19.9992 10.3893L20 10.395C20 10.3982 19.9974 10.4009 19.9941 10.4009H4.03964C4.0364 10.4009 4.03378 10.3982 4.03378 10.395C4.03378 10.3924 4.03547 10.3901 4.03794 10.3894L11.5789 8.10776L13.874 7.48283C13.7708 7.25991 13.7132 7.01166 13.7132 6.75C13.7132 5.7835 14.4987 5 15.4676 5ZM15.4676 8.5C16.4366 8.5 17.222 7.7165 17.222 6.75C17.222 5.7835 16.4366 5 15.4676 5C14.4987 5 13.7132 5.7835 13.7132 6.75C13.7132 7.7165 14.4987 8.5 15.4676 8.5Z" stroke="#000000" stroke-linejoin="round"></path>
</svg>
