<svg xmlns="http://www.w3.org/2000/svg" xmlns:xlink="http://www.w3.org/1999/xlink" viewBox="0 0 200 200" version="1.1" fill="currentColor"
     stroke-width="1.5" stroke="none" class="w-6 h-6" style="shape-rendering:geometricPrecision; text-rendering:geometricPrecision; image-rendering:optimizeQuality; fill-rule:evenodd; clip-rule:evenodd">
    <g><path d="M 94.5,40.5 C 105.704,40.9882 112.204,46.6549 114,57.5C 117.094,48.905 122.927,43.2383 131.5,40.5C 136.389,41.0281 140.556,43.0281 144,46.5C 145.687,49.6241 145.854,52.7908 144.5,56C 150.729,56.0551 156.729,57.2217 162.5,59.5C 165.94,56.1377 169.273,52.6377 172.5,49C 178.412,45.1862 183.246,46.3529 187,52.5C 189.312,55.4573 190.812,58.7907 191.5,62.5C 189.976,67.8815 187.642,72.8815 184.5,77.5C 186.423,78.3078 188.423,78.8078 190.5,79C 193.209,82.4884 194.543,86.4884 194.5,91C 194.163,94.5229 193.663,98.0229 193,101.5C 186.269,114.629 178.769,127.296 170.5,139.5C 132.551,146.047 94.551,152.38 56.5,158.5C 45.9765,151.821 36.1432,144.154 27,135.5C 18.0731,123.324 10.4065,110.324 4,96.5C 2.41043,85.5773 7.24377,79.9106 18.5,79.5C 23.6486,79.492 27.8153,81.492 31,85.5C 29.7602,78.8489 30.7602,72.5156 34,66.5C 40.5012,60.5173 47.1679,60.184 54,65.5C 56.548,72.1466 58.8814,78.8132 61,85.5C 64.4676,80.0659 68.301,74.8992 72.5,70C 75.9926,67.864 79.3259,68.0306 82.5,70.5C 84.8197,62.8892 86.9864,55.2226 89,47.5C 89.9668,44.3794 91.8001,42.046 94.5,40.5 Z M 96.5,46.5 C 100.55,47.0251 103.883,48.8584 106.5,52C 104.959,53.5793 103.792,55.4127 103,57.5C 102.254,61.3628 101.087,65.0295 99.5,68.5C 96.1662,67.1686 93.1662,65.3353 90.5,63C 91.8201,57.1975 93.8201,51.6975 96.5,46.5 Z M 123.5,61.5 C 125.4,56.5319 127.733,51.6986 130.5,47C 137.19,46.2274 140.024,49.0607 139,55.5C 133.989,57.7836 128.822,59.7836 123.5,61.5 Z M 177.5,52.5 C 186.368,56.9182 186.535,61.5849 178,66.5C 174.381,72.612 170.214,78.2786 165.5,83.5C 165.167,83.1667 164.833,82.8333 164.5,82.5C 168.984,76.4021 170.318,69.7354 168.5,62.5C 171.058,58.675 174.058,55.3417 177.5,52.5 Z M 142.5,61.5 C 149.177,61.3018 155.51,62.6351 161.5,65.5C 154.656,69.8531 155.323,71.1864 163.5,69.5C 160.494,79.6509 154.828,88.1509 146.5,95C 116.876,118.737 83.5427,126.07 46.5,117C 42.039,110.031 43.539,104.531 51,100.5C 50.7005,109.872 55.2005,115.372 64.5,117C 71.3698,118.376 77.3698,116.709 82.5,112C 89.095,105.296 95.095,98.1291 100.5,90.5C 102.113,89.5726 103.779,88.7393 105.5,88C 100.101,84.0113 96.6013,78.8447 95,72.5C 98.5904,74.3575 102.424,75.5242 106.5,76C 112.5,76.6667 118.5,76.6667 124.5,76C 121.743,75.1221 119.076,74.1221 116.5,73C 124.415,67.2037 133.082,63.3704 142.5,61.5 Z M 42.5,67.5 C 45.0444,67.1043 47.2111,67.771 49,69.5C 51.9044,76.8799 54.4044,84.3799 56.5,92C 52.5981,93.6369 48.7648,95.4703 45,97.5C 41.8781,88.6859 39.8781,79.6859 39,70.5C 40.1451,69.3636 41.3117,68.3636 42.5,67.5 Z M 75.5,74.5 C 79.9094,74.9501 82.9094,77.2834 84.5,81.5C 82.517,83.9837 80.3504,86.3171 78,88.5C 73.9199,96.3288 69.5865,103.996 65,111.5C 61.2371,110.071 58.4037,107.571 56.5,104C 62.4638,93.9 68.7971,84.0667 75.5,74.5 Z M 89.5,77.5 C 87.668,76.8595 87.3347,75.8595 88.5,74.5C 89.3857,75.325 89.719,76.325 89.5,77.5 Z M 92.5,82.5 C 93.6521,83.8336 94.6521,85.3336 95.5,87C 93.846,89.8258 91.846,92.3258 89.5,94.5C 91.1234,90.6731 92.1234,86.6731 92.5,82.5 Z M 183.5,83.5 C 185.39,83.2965 186.89,83.9632 188,85.5C 188.498,88.8168 188.665,92.1501 188.5,95.5C 182.703,94.9617 177.203,95.9617 172,98.5C 169.926,95.0921 167.092,92.2587 163.5,90C 170.286,87.8121 176.952,85.6455 183.5,83.5 Z M 36.5,115.5 C 32.3929,115.075 28.7262,113.575 25.5,111C 19.0788,105.251 13.4121,98.9174 8.5,92C 10.0629,88.7716 12.5629,86.6049 16,85.5C 24.0475,94.57 30.8808,104.57 36.5,115.5 Z M 81.5,95.5 C 80.9213,98.3311 79.588,100.664 77.5,102.5C 78.0787,99.6689 79.412,97.3356 81.5,95.5 Z M 156.5,95.5 C 163.734,94.8974 166.401,98.0641 164.5,105C 153.094,109.08 141.427,111.746 129.5,113C 138.939,107.628 147.939,101.795 156.5,95.5 Z M 47.5,123.5 C 95.0921,127.733 141.092,121.233 185.5,104C 179.167,114.333 172.833,124.667 166.5,135C 130.445,140.603 94.4455,146.436 58.5,152.5C 56.8786,150.847 55.7119,148.847 55,146.5C 52.3892,138.835 49.8892,131.168 47.5,123.5 Z M 21.5,115.5 C 26.566,119.191 32.2326,121.525 38.5,122.5C 42.2523,129.933 45.0856,137.6 47,145.5C 35.915,137.641 27.415,127.641 21.5,115.5 Z"/></g>
    <g><path d="M 139.5,65.5 C 144.068,65.0826 145.568,67.0826 144,71.5C 140.709,74.4366 138.542,73.7699 137.5,69.5C 137.803,67.8857 138.47,66.5523 139.5,65.5 Z"/></g>
</svg>
