<svg preserveAspectRatio="none" xmlns="http://www.w3.org/2000/svg" viewBox="0 0 200 200" fill="currentColor" stroke-width="1.5" stroke="none" class="w-6 h-6">
    <path fill="current-color" d="M 79.5,-0.5 C 91.8333,-0.5 104.167,-0.5 116.5,-0.5C 116.667,14.1705 116.5,28.8371 116,43.5C 115.3,47.0662 113.467,49.8995 110.5,52C 91.5733,53.6878 72.5733,54.6878 53.5,55C 39.3494,59.7972 33.1827,69.6306 35,84.5C 37.8333,94 44,100.167 53.5,103C 84.5,103.333 115.5,103.667 146.5,104C 154.505,107.649 157.339,113.816 155,122.5C 153.5,126 151,128.5 147.5,130C 130.5,130.333 113.5,130.667 96.5,131C 83.6667,133.167 76.1667,140.667 74,153.5C 73.2178,167.866 73.3844,182.199 74.5,196.5C 33.8471,185.514 8.84705,159.514 -0.5,118.5C -0.5,105.5 -0.5,92.5 -0.5,79.5C 9.83333,36.5 36.5,9.83333 79.5,-0.5 Z"/>
    <path fill="current-color" d="M 199.5,84.5 C 199.5,94.1667 199.5,103.833 199.5,113.5C 189.833,161.167 161.167,189.833 113.5,199.5C 104.167,199.5 94.8333,199.5 85.5,199.5C 85.3334,183.163 85.5001,166.83 86,150.5C 87.5933,146.572 90.4267,144.072 94.5,143C 111.167,142.667 127.833,142.333 144.5,142C 161.721,137.784 168.888,126.951 166,109.5C 162.321,101.151 156.154,95.6509 147.5,93C 116.5,92.6667 85.5,92.3333 54.5,92C 45.5078,87.017 43.3411,79.8503 48,70.5C 49.7309,68.3834 51.8976,66.8834 54.5,66C 71.8333,65.6667 89.1667,65.3333 106.5,65C 116.894,62.2736 123.727,55.7736 127,45.5C 127.5,31.1705 127.667,16.8372 127.5,2.5C 156.471,11.3034 177.638,29.3034 191,56.5C 194.785,65.677 197.618,75.0103 199.5,84.5 Z"/>
</svg>
