<svg xmlns="http://www.w3.org/2000/svg" xmlns:xlink="http://www.w3.org/1999/xlink" version="1.1" viewBox="0 0 200 200" fill="currentColor"
     stroke-width="1.5" stroke="none" class="w-6 h-6" style="shape-rendering:geometricPrecision; text-rendering:geometricPrecision; image-rendering:optimizeQuality; fill-rule:evenodd; clip-rule:evenodd">
    <g><path d="M 134.5,-0.5 C 135.833,-0.5 137.167,-0.5 138.5,-0.5C 138.5,10.8333 138.5,22.1667 138.5,33.5C 149.5,33.5 160.5,33.5 171.5,33.5C 171.5,88.8333 171.5,144.167 171.5,199.5C 123.833,199.5 76.1667,199.5 28.5,199.5C 28.5,144.167 28.5,88.8333 28.5,33.5C 64.1025,22.7427 99.4358,11.4093 134.5,-0.5 Z M 128.5,11.5 C 129.492,18.6476 129.825,25.9809 129.5,33.5C 107.164,33.6666 84.8308,33.5 62.5,33C 84.769,26.2984 106.769,19.1318 128.5,11.5 Z M 37.5,43.5 C 79.1667,43.5 120.833,43.5 162.5,43.5C 162.5,92.8333 162.5,142.167 162.5,191.5C 120.833,191.5 79.1667,191.5 37.5,191.5C 37.5,142.167 37.5,92.8333 37.5,43.5 Z"/></g>
    <g><path d="M 49.5,74.5 C 52.1873,74.3359 54.854,74.5026 57.5,75C 59.1889,78.8787 61.0223,82.712 63,86.5C 64.9777,82.712 66.8111,78.8787 68.5,75C 71.146,74.5026 73.8127,74.3359 76.5,74.5C 76.5,82.5 76.5,90.5 76.5,98.5C 74.5,98.5 72.5,98.5 70.5,98.5C 70.6655,94.4862 70.4988,90.4862 70,86.5C 65.3333,99.8333 60.6667,99.8333 56,86.5C 55.5012,90.4862 55.3345,94.4862 55.5,98.5C 53.5,98.5 51.5,98.5 49.5,98.5C 49.5,90.5 49.5,82.5 49.5,74.5 Z"/></g>
    <g><path d="M 81.5,74.5 C 87.1667,74.5 92.8333,74.5 98.5,74.5C 98.5,76.1667 98.5,77.8333 98.5,79.5C 95.1501,79.335 91.8168,79.5017 88.5,80C 87.6634,81.0113 87.33,82.1779 87.5,83.5C 90.8333,83.5 94.1667,83.5 97.5,83.5C 97.5,85.5 97.5,87.5 97.5,89.5C 94.1667,89.5 90.8333,89.5 87.5,89.5C 87.5,90.8333 87.5,92.1667 87.5,93.5C 91.5,93.5 95.5,93.5 99.5,93.5C 99.5,95.1667 99.5,96.8333 99.5,98.5C 93.5,98.5 87.5,98.5 81.5,98.5C 81.5,90.5 81.5,82.5 81.5,74.5 Z"/></g>
    <g><path d="M 103.5,74.5 C 105.199,74.3398 106.866,74.5065 108.5,75C 112.382,79.2139 115.882,83.7139 119,88.5C 119.499,83.8452 119.666,79.1785 119.5,74.5C 121.5,74.5 123.5,74.5 125.5,74.5C 125.5,82.5 125.5,90.5 125.5,98.5C 123.076,98.8076 120.743,98.4742 118.5,97.5C 115.858,93.6906 113.025,90.0239 110,86.5C 109.501,90.4862 109.334,94.4862 109.5,98.5C 107.5,98.5 105.5,98.5 103.5,98.5C 103.5,90.5 103.5,82.5 103.5,74.5 Z"/></g>
    <g><path d="M 130.5,74.5 C 132.167,74.5 133.833,74.5 135.5,74.5C 135.149,80.2617 135.649,85.9284 137,91.5C 139.763,94.288 142.097,93.9547 144,90.5C 144.499,85.1771 144.666,79.8437 144.5,74.5C 146.5,74.5 148.5,74.5 150.5,74.5C 150.666,80.8421 150.5,87.1754 150,93.5C 148.063,97.3861 144.897,99.0528 140.5,98.5C 136.103,99.0528 132.937,97.3861 131,93.5C 130.5,87.1754 130.334,80.8421 130.5,74.5 Z"/></g>
    <g><path d="M 52.5,116.5 C 84.1667,116.5 115.833,116.5 147.5,116.5C 147.5,119.5 147.5,122.5 147.5,125.5C 115.833,125.5 84.1667,125.5 52.5,125.5C 52.5,122.5 52.5,119.5 52.5,116.5 Z"/></g>
    <g><path d="M 52.5,141.5 C 84.1667,141.5 115.833,141.5 147.5,141.5C 147.5,144.5 147.5,147.5 147.5,150.5C 115.833,150.5 84.1667,150.5 52.5,150.5C 52.5,147.5 52.5,144.5 52.5,141.5 Z"/></g>
    <g><path d="M 52.5,166.5 C 84.1667,166.5 115.833,166.5 147.5,166.5C 147.5,169.5 147.5,172.5 147.5,175.5C 115.833,175.5 84.1667,175.5 52.5,175.5C 52.5,172.5 52.5,169.5 52.5,166.5 Z"/></g>
</svg>
