<svg preserveAspectRatio="none" xmlns="http://www.w3.org/2000/svg" viewBox="0 0 512 512" fill="currentColor" stroke-width="1.5" stroke="none" class="w-6 h-6">
    <path d="M342.535,97.457c-26.075,0-51.519,5.955-74.635,17.316c7.268-50.609,50.893-89.638,103.48-89.638 c5.974,0,10.817-4.842,10.817-10.817S377.354,3.501,371.38,3.501c-50.664,0-94.443,30.015-114.509,73.193 c-17.574-38.743-56.591-65.773-101.829-65.773c-5.974,0-10.817,4.842-10.817,10.817c0,29.226,11.289,55.857,29.718,75.793 c-1.491-0.039-2.983-0.075-4.478-0.075C76.021,97.457,0,173.478,0,266.921c0,60.632,15.713,120.546,43.109,164.381 c31.112,49.782,75.988,77.197,126.356,77.197c30.629,0,60.4-8.189,86.535-23.742c26.135,15.553,55.906,23.742,86.535,23.742 c50.368,0,95.244-27.416,126.356-77.197C496.287,387.468,512,327.554,512,266.922C512,173.478,435.979,97.457,342.535,97.457z M166.595,33.292c40.487,5.202,72.649,37.366,77.851,77.851C203.961,105.941,171.798,73.778,166.595,33.292z M342.535,486.865 c-28.756,0-56.637-8.268-80.626-23.913c-1.796-1.171-3.852-1.757-5.909-1.757s-4.113,0.586-5.909,1.757 c-23.99,15.644-51.871,23.913-80.626,23.913c-96.019,0-147.831-113.319-147.831-219.944c0-81.515,66.316-147.831,147.831-147.831 c28.756,0,56.637,8.268,80.626,23.913c3.591,2.341,8.225,2.341,11.816,0c23.99-15.644,51.871-23.913,80.626-23.913 c81.515,0,147.831,66.316,147.831,147.831C490.366,373.546,438.555,486.865,342.535,486.865z"></path>
</svg>
