<svg preserveAspectRatio="none" xmlns="http://www.w3.org/2000/svg" viewBox="0 0 200 200" fill="currentColor" stroke-width="1.5" stroke="none" class="w-6 h-6" style="fill-rule:evenodd;">
    <path fill="current-color" d="M 81.5,-0.5 C 93.8333,-0.5 106.167,-0.5 118.5,-0.5C 139.139,5.24297 157.305,15.5763 173,30.5C 186.651,45.8023 195.485,63.469 199.5,83.5C 199.5,94.1667 199.5,104.833 199.5,115.5C 187.592,164.076 156.925,192.076 107.5,199.5C 102.5,199.5 97.5,199.5 92.5,199.5C 41.2237,192.225 10.2237,163.225 -0.5,112.5C -0.5,103.5 -0.5,94.5 -0.5,85.5C 9.41415,40.2519 36.7475,11.5853 81.5,-0.5 Z M 89.5,12.5 C 127.551,10.2717 156.384,25.2717 176,57.5C 194.847,98.5855 188.014,134.752 155.5,166C 128.791,186.451 99.4579,191.117 67.5,180C 32.7969,164.298 14.4635,137.298 12.5,99C 15.3046,57.8772 35.9713,30.2106 74.5,16C 79.6457,14.8752 84.6457,13.7085 89.5,12.5 Z"/>
    <path fill="current-color" d="M 110.5,24.5 C 118.37,22.6447 124.537,24.9781 129,31.5C 139.892,44.9695 137.225,54.6361 121,60.5C 113.857,59.5064 107.023,57.5064 100.5,54.5C 94.3811,56.7713 89.5478,60.7713 86,66.5C 84,69.8333 82,73.1667 80,76.5C 78.4701,86.264 76.8034,95.9307 75,105.5C 86.0902,97.3486 97.5902,96.682 109.5,103.5C 123.436,94.8511 138.102,93.3511 153.5,99C 156.5,99.6667 159.5,99.6667 162.5,99C 167.595,96.4524 172.595,93.9524 177.5,91.5C 179.752,128.834 164.085,155.667 130.5,172C 128.741,172.798 127.074,172.631 125.5,171.5C 123.241,165.031 121.741,158.364 121,151.5C 120.333,150.167 119.333,149.167 118,148.5C 100.34,153.236 82.5065,153.736 64.5,150C 51.4239,145.53 38.4239,140.864 25.5,136C 23.9512,134.786 22.7845,133.286 22,131.5C 21.1045,114.402 25.7712,99.0685 36,85.5C 53.4743,68.3585 70.6409,50.8585 87.5,33C 95.018,29.4422 102.685,26.6089 110.5,24.5 Z M 73.5,127.5 C 84.799,134.636 96.4657,135.303 108.5,129.5C 99.8642,139.317 89.8642,140.817 78.5,134C 76.2101,132.223 74.5434,130.056 73.5,127.5 Z"/>
</svg>
