<svg preserveAspectRatio="none" xmlns="http://www.w3.org/2000/svg" viewBox="0 0 200 200" fill="currentColor" stroke-width="1.5" stroke="none" class="w-6 h-6" style="fill-rule:evenodd;">
    <path fill="current-color" d="M 81.5,-0.5 C 93.8333,-0.5 106.167,-0.5 118.5,-0.5C 139.139,5.24297 157.305,15.5763 173,30.5C 186.651,45.8023 195.485,63.469 199.5,83.5C 199.5,94.1667 199.5,104.833 199.5,115.5C 187.592,164.076 156.925,192.076 107.5,199.5C 102.5,199.5 97.5,199.5 92.5,199.5C 41.2237,192.225 10.2237,163.225 -0.5,112.5C -0.5,103.5 -0.5,94.5 -0.5,85.5C 9.41415,40.2519 36.7475,11.5853 81.5,-0.5 Z M 89.5,12.5 C 127.551,10.2717 156.384,25.2717 176,57.5C 194.847,98.5855 188.014,134.752 155.5,166C 128.791,186.451 99.4579,191.117 67.5,180C 32.7969,164.298 14.4635,137.298 12.5,99C 15.3046,57.8772 35.9713,30.2106 74.5,16C 79.6457,14.8752 84.6457,13.7085 89.5,12.5 Z"/>
    <path fill="current-color" d="M 98.5,28.5 C 106.6,33.9885 111.767,41.6552 114,51.5C 117.033,68.0735 112.199,81.7402 99.5,92.5C 84.5143,78.8861 80.681,62.5528 88,43.5C 90.9413,38.0671 94.4413,33.0671 98.5,28.5 Z"/>
    <path fill="current-color" d="M 142.5,70.5 C 151.566,70.6815 159.899,73.1815 167.5,78C 156.495,99.5001 139.162,107.5 115.5,102C 111.888,100.861 108.554,99.1939 105.5,97C 113.314,81.6627 125.648,72.8294 142.5,70.5 Z"/>
    <path fill="current-color" d="M 46.5,71.5 C 68.2116,69.0788 83.8783,77.5788 93.5,97C 79.6728,106.123 65.3394,106.79 50.5,99C 42.3024,94.1105 36.3024,87.2772 32.5,78.5C 36.6776,75.0779 41.3442,72.7445 46.5,71.5 Z"/>
    <path fill="current-color" d="M 94.5,103.5 C 100.614,127.11 92.2803,143.943 69.5,154C 65.8547,155.166 62.188,155.833 58.5,156C 54.4819,127.541 66.4819,110.041 94.5,103.5 Z"/>
    <path fill="current-color" d="M 103.5,104.5 C 131.809,109.774 144.642,126.774 142,155.5C 141.692,156.308 141.192,156.975 140.5,157.5C 112.081,151.079 99.7479,133.412 103.5,104.5 Z"/>
</svg>
