<svg preserveAspectRatio="none" xmlns="http://www.w3.org/2000/svg" viewBox="0 0 200 200" fill="currentColor" stroke-width="1.5" stroke="none" class="w-6 h-6" style="fill-rule:evenodd;">
    <path fill="current-color" d="M 81.5,-0.5 C 93.8333,-0.5 106.167,-0.5 118.5,-0.5C 139.139,5.24297 157.305,15.5763 173,30.5C 186.651,45.8023 195.485,63.469 199.5,83.5C 199.5,94.1667 199.5,104.833 199.5,115.5C 187.592,164.076 156.925,192.076 107.5,199.5C 102.5,199.5 97.5,199.5 92.5,199.5C 41.2237,192.225 10.2237,163.225 -0.5,112.5C -0.5,103.5 -0.5,94.5 -0.5,85.5C 9.41415,40.2519 36.7475,11.5853 81.5,-0.5 Z M 89.5,12.5 C 127.551,10.2717 156.384,25.2717 176,57.5C 194.847,98.5855 188.014,134.752 155.5,166C 128.791,186.451 99.4579,191.117 67.5,180C 32.7969,164.298 14.4635,137.298 12.5,99C 15.3046,57.8772 35.9713,30.2106 74.5,16C 79.6457,14.8752 84.6457,13.7085 89.5,12.5 Z"/>
    <path fill="current-color" d="M 92.5,41.5 C 115.103,39.9596 129.603,49.9596 136,71.5C 138.392,74.228 140.392,77.228 142,80.5C 142.072,102.207 141.072,123.874 139,145.5C 136.744,150.757 132.91,154.257 127.5,156C 108.833,156.667 90.1667,156.667 71.5,156C 65.6405,154.141 61.8072,150.307 60,144.5C 57.6699,123.21 56.3366,101.877 56,80.5C 56.9305,77.6384 58.5971,75.305 61,73.5C 65.0541,56.2804 75.5541,45.6137 92.5,41.5 Z M 93.5,50.5 C 85.8486,52.6409 79.6819,56.9743 75,63.5C 66.2533,81.9251 70.7533,96.0918 88.5,106C 107.543,110.894 120.377,104.061 127,85.5C 128.316,61.9816 117.15,50.3149 93.5,50.5 Z"/>
    <path fill="current-color" d="M 90.5,65.5 C 95.5739,68.5461 100.907,71.2127 106.5,73.5C 109.591,81.2531 106.924,84.4198 98.5,83C 96.9262,81.1741 96.0929,79.0075 96,76.5C 92.5927,73.6001 90.7594,69.9335 90.5,65.5 Z"/>
</svg>
