<svg preserveAspectRatio="none" xmlns="http://www.w3.org/2000/svg" viewBox="0 0 200 200" fill="currentColor" stroke-width="1.5" stroke="none" class="w-6 h-6" style="fill-rule:evenodd;">
<path fill="current-color" d="M 199.5,54.5 C 199.5,62.1667 199.5,69.8333 199.5,77.5C 197.233,87.5232 192.233,96.0232 184.5,103C 197.193,125.426 195.36,146.593 179,166.5C 159.423,184.122 137.923,186.788 114.5,174.5C 110.379,177.453 106.712,180.953 103.5,185C 101.167,185.667 98.8333,185.667 96.5,185C 66.6571,155.456 37.1571,125.623 8,95.5C 3.95184,89.2485 1.1185,82.5819 -0.5,75.5C -0.5,69.1667 -0.5,62.8333 -0.5,56.5C 9.35692,22.8907 31.6903,9.05732 66.5,15C 81.2592,19.7564 92.4258,28.9231 100,42.5C 113.617,18.2802 134.117,9.11351 161.5,15C 181.512,21.2552 194.179,34.4219 199.5,54.5 Z M 43.5,23.5 C 75.1326,21.9669 92.2993,36.9669 95,68.5C 98,72.5 101,72.5 104,68.5C 107.002,37.1589 124.169,22.3256 155.5,24C 180.67,31.5097 191.837,48.343 189,74.5C 187.456,82.09 183.956,88.59 178.5,94C 177.833,94.6667 177.167,94.6667 176.5,94C 163.68,82.3964 148.68,78.063 131.5,81C 98.8399,92.1439 86.3399,114.644 94,148.5C 96.601,155.76 100.768,161.927 106.5,167C 104.317,169.35 101.984,171.517 99.5,173.5C 72.3433,145.842 44.8433,118.176 17,90.5C 4.7352,68.7973 7.56854,49.2973 25.5,32C 31.2079,28.3101 37.2079,25.4768 43.5,23.5 Z M 134.5,90.5 C 151.951,88.4737 165.784,94.4737 176,108.5C 185.077,124.909 184.41,140.909 174,156.5C 156.591,173.928 137.424,176.095 116.5,163C 99.1338,145.585 96.9672,126.418 110,105.5C 116.755,98.0463 124.921,93.0463 134.5,90.5 Z"/>
<path fill="current-color" d="M 47.5,36.5 C 52.2536,35.5432 55.587,37.2098 57.5,41.5C 55.198,46.4893 51.198,48.6559 45.5,48C 36.6066,52.2644 32.1066,59.4311 32,69.5C 26.9682,72.2584 23.8015,70.7584 22.5,65C 24.3472,49.661 32.6806,40.161 47.5,36.5 Z"/>
<path fill="current-color" d="M 159.5,113.5 C 166.208,112.534 168.541,115.201 166.5,121.5C 156.503,132.662 145.67,142.996 134,152.5C 128.359,148.855 123.359,144.522 119,139.5C 116.588,133.24 118.755,130.407 125.5,131C 128.333,133.833 131.167,136.667 134,139.5C 142.702,130.965 151.202,122.298 159.5,113.5 Z"/>
</svg>
