<svg preserveAspectRatio="none" xmlns="http://www.w3.org/2000/svg" viewBox="0 0 200 200" fill="currentColor" stroke-width="1.5" stroke="none" class="w-6 h-6" style="fill-rule:evenodd;">
<path fill="current-color" d="M 81.5,-0.5 C 92.8333,-0.5 104.167,-0.5 115.5,-0.5C 160.582,10.0828 188.082,38.0828 198,83.5C 202.496,137.708 179.663,174.875 129.5,195C 123.668,196.373 118.002,197.873 112.5,199.5C 103.167,199.5 93.8333,199.5 84.5,199.5C 40.3913,190.055 12.058,163.722 -0.5,120.5C -0.5,106.5 -0.5,92.5 -0.5,78.5C 11.1464,35.8531 38.4797,9.51979 81.5,-0.5 Z M 96.5,17.5 C 117.936,17.728 136.603,24.8946 152.5,39C 146.041,43.7904 139.874,48.9571 134,54.5C 133.667,54.1667 133.333,53.8333 133,53.5C 131.28,62.7899 131.113,72.1232 132.5,81.5C 143.463,72.5393 154.129,63.206 164.5,53.5C 174.942,66.7289 179.942,81.8955 179.5,99C 178.215,132.923 162.549,157.59 132.5,173C 100.591,185.494 71.2575,181.161 44.5,160C 48.1667,157 51.8333,154 55.5,151C 49.2754,146.72 42.6087,143.22 35.5,140.5C 35.3036,142.307 34.1369,143.974 32,145.5C 11.7912,112.81 12.7912,80.4769 35,48.5C 51.2096,29.4787 71.7096,19.1454 96.5,17.5 Z"/>
<path fill="current-color" d="M 98.5,37.5 C 106.827,41.3285 114.827,45.6618 122.5,50.5C 114.413,54.9607 106.246,59.294 98,63.5C 90.0851,59.1264 82.2518,54.6264 74.5,50C 82.6559,46.0891 90.6559,41.9224 98.5,37.5 Z"/>
<path fill="current-color" d="M 70.5,53.5 C 78.3813,56.774 86.048,60.6073 93.5,65C 94.5,66 95.5,67 96.5,68C 95.8449,77.7733 95.1782,87.6066 94.5,97.5C 86.5886,93.6277 78.7552,89.6277 71,85.5C 70.5002,74.8385 70.3335,64.1719 70.5,53.5 Z"/>
<path fill="current-color" d="M 124.5,53.5 C 125.828,58.4558 126.495,63.7891 126.5,69.5C 126.333,74.8333 126.167,80.1667 126,85.5C 117.641,90.7625 108.808,95.0958 99.5,98.5C 99.3335,88.1613 99.5002,77.828 100,67.5C 108.057,62.6024 116.224,57.9357 124.5,53.5 Z"/>
<path fill="current-color" d="M 128.5,88.5 C 136.827,92.3285 144.827,96.6618 152.5,101.5C 144.116,106.527 135.449,110.694 126.5,114C 119.329,109.58 111.996,105.414 104.5,101.5C 112.464,97.1834 120.464,92.85 128.5,88.5 Z"/>
<path fill="current-color" d="M 66.5,89.5 C 67.8734,89.3433 69.2068,89.51 70.5,90C 78.2023,93.3811 85.5356,97.2144 92.5,101.5C 84.3329,106.084 75.9995,110.417 67.5,114.5C 59.6712,110.42 52.0045,106.087 44.5,101.5C 51.6038,96.9506 58.9371,92.9506 66.5,89.5 Z"/>
<path fill="current-color" d="M 40.5,104.5 C 48.8505,108.426 57.0172,112.759 65,117.5C 65.4998,127.828 65.6665,138.161 65.5,148.5C 56.89,145.445 48.7233,141.445 41,136.5C 40.5002,125.839 40.3335,115.172 40.5,104.5 Z"/>
<path fill="current-color" d="M 94.5,104.5 C 95.8282,109.456 96.4949,114.789 96.5,120.5C 96.3333,125.833 96.1667,131.167 96,136.5C 87.3026,141.266 78.4692,145.599 69.5,149.5C 69.168,138.813 69.5013,128.146 70.5,117.5C 78.5618,113.138 86.5618,108.805 94.5,104.5 Z"/>
<path fill="current-color" d="M 100.5,104.5 C 108.851,108.426 117.017,112.759 125,117.5C 125.5,127.828 125.666,138.161 125.5,148.5C 116.921,145.461 108.754,141.461 101,136.5C 100.5,125.839 100.333,115.172 100.5,104.5 Z"/>
<path fill="current-color" d="M 154.5,104.5 C 155.828,109.456 156.495,114.789 156.5,120.5C 156.333,125.833 156.167,131.167 156,136.5C 147.641,141.762 138.808,146.096 129.5,149.5C 129.168,138.813 129.501,128.146 130.5,117.5C 138.562,113.138 146.562,108.805 154.5,104.5 Z"/>
</svg>
