<svg preserveAspectRatio="none" xmlns="http://www.w3.org/2000/svg" viewBox="0 0 512 512" fill="currentColor" stroke-width="1.5" stroke="none" class="w-6 h-6">
<path d="M412.673,35.774c-27.062-14.495-57.696-22.156-88.588-22.156c-30.908,0-61.547,7.666-88.597,22.166 c-37.127,19.871-66.64,51.808-83.508,90.218c-18.394,3.551-36.091,9.836-52.663,18.719C38.057,177.516,0,241.027,0,310.468 c0,53.317,16.286,99.181,47.096,132.635c33.308,36.165,82.002,55.28,140.819,55.28c45.152,0,83.766-10.955,114.773-32.56 c27.291-19.017,48.02-46.386,60.218-79.344c46.38-7.433,84.557-28.979,110.634-62.514C498.701,291.609,512,249.272,512,201.532 C512,132.087,473.94,68.572,412.673,35.774z M324.085,29.957c25.932,0,51.651,5.924,74.823,17.154 c-10.747,31.864-40.718,53.654-74.823,53.654c-34.097,0-64.074-21.792-74.824-53.65C272.423,35.883,298.143,29.957,324.085,29.957 z M159.142,141.305c9.414-1.6,19.095-2.412,28.773-2.412c25.933,0,51.652,5.924,74.823,17.154 c-10.745,31.863-40.718,53.654-74.823,53.654c-34.102,0-64.086-21.8-74.83-53.669C127.67,148.945,143.129,143.997,159.142,141.305 z M349.139,376.491c-10.945,32.209-29.717,57.755-55.794,75.925c-28.212,19.659-63.684,29.626-105.431,29.626 c-54.128,0-98.667-17.294-128.799-50.009C31.132,401.649,16.34,359.612,16.34,310.468c0-60.139,31.278-115.391,82.235-146.48 c13.731,36.977,49.165,62.054,89.34,62.054c40.184,0,75.612-25.077,89.339-62.059c50.957,31.091,82.236,86.345,82.236,146.484 C359.489,334.07,356.007,356.283,349.139,376.491z M460.64,313.934c-21.946,28.222-53.622,47.05-92.137,54.919 c4.864-18.309,7.327-37.886,7.327-58.385c0-69.445-38.06-132.96-99.327-165.758c-27.062-14.495-57.696-22.156-88.588-22.156 c-5.53,0-11.061,0.248-16.552,0.729c14.404-28.055,36.39-51.749,63.379-68.24c13.728,36.983,49.165,62.064,89.343,62.064 c40.184,0,75.612-25.077,89.339-62.059c50.957,31.091,82.236,86.345,82.236,146.484C495.66,245.604,483.55,284.473,460.64,313.934 z"></path>
</svg>
