<svg xmlns="http://www.w3.org/2000/svg" viewBox="0 0 500 500" fill="currentColor" stroke-width="1.5" stroke="none" class="w-6 h-6">
<path style="opacity: 1;" d="M 370.481 -2.723 C 443.107 -5.751 499.681 64.805 497.665 125.747 C 494.601 218.381 397.109 259.402 374.579 371.476 L 365.343 371.415 C 341.089 259.928 241.646 210.144 241.111 124.907 C 240.73 64.331 295.063 0.421 370.481 -2.723 Z M 370.376 94.318 C 352.671 94.318 338.318 108.671 338.318 126.376 C 338.318 144.081 352.671 158.434 370.376 158.434 C 388.081 158.434 402.434 144.081 402.434 126.376 C 402.434 108.671 388.081 94.318 370.376 94.318 Z" transform="matrix(0.9999999999999999, 0, 0, 0.9999999999999999, -2.842170943040401e-14, -7.105427357601002e-15)"/>
<path style="opacity: 1;" d="M 390.097 384.67 C 390.097 384.67 401.031 353.942 409.582 331.936 C 421.654 300.867 454.438 262.623 454.438 262.623 L 454.788 445.527 C 454.788 445.527 452.458 484.046 411.872 487.563 L 51.158 487.503 C 51.158 487.503 8.865 484.777 8.113 442.911 L 7.936 81.594 C 14.141 53.088 24.856 44.383 50.211 40.861 L 247.805 40.774 C 247.805 40.774 216.675 87.014 220.795 126.151 C 220.795 126.151 221.397 176.254 247.449 209.958 L 29.764 427.678 C 29.764 427.678 24.649 447.758 35.751 458.423 C 50.252 472.353 67.521 466.073 67.521 466.073 L 279.95 254.884 L 322.655 316.624 L 283.729 279.117 L 245.902 317.387 L 394.834 465.705 C 394.834 465.705 414.091 470.537 424.424 460.342 C 437.167 447.768 434.052 428.5 434.032 428.5 C 434.012 428.5 390.097 384.67 390.097 384.67 Z" transform="matrix(0.9999999999999999, 0, 0, 0.9999999999999999, -2.842170943040401e-14, -7.105427357601002e-15)"/>
</svg>
