<svg preserveAspectRatio="none" xmlns="http://www.w3.org/2000/svg" viewBox="0 0 512 512" fill="currentColor" stroke-width="1.5" stroke="none" class="w-6 h-6">
<path d="M438.222,80.776c-28.214-34.259-68.693-59.087-117.059-71.799C286.007-0.262,258.846-0.041,256,0.012 c-2.854-0.056-30.011-0.275-65.162,8.965c-48.366,12.712-88.845,37.539-117.058,71.797 c-34.018,41.291-51.268,96.463-51.268,163.981v3.495l177.421,177.421c-5.634,1.88-12.211,4.695-18.79,8.882 c-15.9,10.118-34.853,30.304-34.853,69.009v8.439h219.423v-8.439c0-38.705-18.954-58.891-34.853-69.009 c-6.58-4.187-13.156-7.001-18.79-8.882L489.489,248.25v-3.495h0C489.489,177.237,472.24,122.065,438.222,80.776z M264.44,17.086 c10.493,0.509,30.038,2.282,52.936,8.349c29.903,7.924,71.623,24.984,103.799,61.382L264.44,400.298V17.086z M194.625,25.435 c22.9-6.068,42.445-7.842,52.936-8.35v383.192L90.826,86.817C123.002,50.419,164.722,33.359,194.625,25.435z M39.408,241.276 c0.523-56.627,13.915-103.596,39.833-139.89l160.302,320.596h-19.431L39.408,241.276z M321.798,448.794 c15.851,10.087,24.798,25.648,26.666,46.329H163.547c4.558-49.237,48.767-55.71,53.52-56.262h77.847 C296.947,439.115,309.495,440.964,321.798,448.794z M291.889,421.981h-19.421l160.293-320.596 c25.918,36.294,39.309,83.263,39.833,139.89L291.889,421.981z"></path>
</svg>
