<svg xmlns="http://www.w3.org/2000/svg" xmlns:xlink="http://www.w3.org/1999/xlink" version="1.1" viewBox="0 0 200 200" fill="currentColor"
     stroke-width="1.5" stroke="none" class="w-6 h-6" style="shape-rendering:geometricPrecision; text-rendering:geometricPrecision; image-rendering:optimizeQuality; fill-rule:evenodd; clip-rule:evenodd">
    <g><path d="M 59.5,28.5 C 86.1687,28.3334 112.835,28.5 139.5,29C 146.182,29.7547 151.348,32.9214 155,38.5C 161.223,53.6154 166.89,68.9487 172,84.5C 174.487,86.8089 176.487,89.4756 178,92.5C 181.806,108.394 181.14,124.061 176,139.5C 173.961,141.874 171.628,143.874 169,145.5C 168.667,152.833 168.333,160.167 168,167.5C 164.787,169.913 161.12,170.913 157,170.5C 152.398,170.427 147.898,169.761 143.5,168.5C 142.808,167.975 142.308,167.308 142,166.5C 141.5,160.175 141.334,153.842 141.5,147.5C 113.5,147.5 85.5,147.5 57.5,147.5C 57.6662,153.842 57.4995,160.175 57,166.5C 56.6258,167.416 56.1258,168.25 55.5,169C 47.8333,171 40.1667,171 32.5,169C 32,168.5 31.5,168 31,167.5C 30.6667,160.167 30.3333,152.833 30,145.5C 26.6667,143.5 24,140.833 22,137.5C 17.7626,122.598 17.4292,107.598 21,92.5C 22.5134,89.4756 24.5134,86.8089 27,84.5C 31.6667,71.1667 36.3333,57.8333 41,44.5C 44.1488,35.5314 50.3155,30.198 59.5,28.5 Z M 65.5,43.5 C 89.5653,43.0296 113.565,43.5296 137.5,45C 140.728,46.5629 142.895,49.0629 144,52.5C 146.645,62.0798 148.812,71.7464 150.5,81.5C 116.5,81.5 82.5,81.5 48.5,81.5C 50.1879,71.7464 52.3546,62.0798 55,52.5C 57.1029,47.7217 60.6029,44.7217 65.5,43.5 Z M 46.5,101.5 C 55.3045,101.14 60.3045,105.307 61.5,114C 58.8511,125.309 52.1844,128.642 41.5,124C 33.7046,114.243 35.3713,106.743 46.5,101.5 Z M 146.5,101.5 C 159.916,102.412 164.083,109.079 159,121.5C 150.926,128.57 143.926,127.57 138,118.5C 135.878,110.174 138.711,104.507 146.5,101.5 Z"/></g>
</svg>
