<svg xmlns="http://www.w3.org/2000/svg" xmlns:xlink="http://www.w3.org/1999/xlink" version="1.1" viewBox="0 0 200 200" fill="currentColor"
     stroke-width="1.5" stroke="none" class="w-6 h-6" style="shape-rendering:geometricPrecision; text-rendering:geometricPrecision; image-rendering:optimizeQuality; fill-rule:evenodd; clip-rule:evenodd">
    <g><path d="M 84.5,-0.5 C 86.8333,-0.5 89.1667,-0.5 91.5,-0.5C 132.289,22.4548 165.122,53.7881 190,93.5C 192.532,97.7283 194.365,102.228 195.5,107C 195.561,108.711 194.894,110.044 193.5,111C 166.47,122.851 139.47,134.684 112.5,146.5C 111.682,161.789 111.182,177.122 111,192.5C 109.306,195.358 107.139,197.691 104.5,199.5C 100.5,199.5 96.5,199.5 92.5,199.5C 89.3933,197.22 87.2266,194.22 86,190.5C 85.6667,179.5 85.3333,168.5 85,157.5C 81.1238,159.771 77.1238,161.771 73,163.5C 72.6667,169.167 72.3333,174.833 72,180.5C 69.7667,186.456 65.4334,189.456 59,189.5C 50.3677,188.202 46.0344,183.202 46,174.5C 34.5745,179.795 23.0745,184.962 11.5,190C 9.16667,190.667 6.83333,190.667 4.5,190C 3.91858,189.107 3.58524,188.107 3.5,187C 30.0949,124.312 57.0949,61.8117 84.5,-0.5 Z M 89.5,8.5 C 129.621,32.121 161.621,63.9544 185.5,104C 180.966,107.395 175.966,109.395 170.5,110C 167.727,107.617 165.561,104.783 164,101.5C 160.077,93.9858 156.41,86.3191 153,78.5C 145.395,66.7747 134.562,60.2747 120.5,59C 116.376,53.9232 112.876,48.4232 110,42.5C 103.357,32.6989 94.1908,26.6989 82.5,24.5C 85.3954,19.3793 87.7288,14.0459 89.5,8.5 Z M 78.5,33.5 C 87.9222,33.7261 95.4222,37.7261 101,45.5C 105.291,51.9152 109.458,58.4152 113.5,65C 119.284,67.6136 125.284,69.6136 131.5,71C 137.943,73.7767 142.777,78.2767 146,84.5C 150.864,95.0656 156.364,105.232 162.5,115C 142.693,122.821 123.193,131.321 104,140.5C 103.667,156.5 103.333,172.5 103,188.5C 99.0103,192.618 96.0103,191.951 94,186.5C 93.5001,173.504 93.3334,160.504 93.5,147.5C 91.1432,147.337 88.8098,147.503 86.5,148C 79.3839,150.725 72.3839,153.725 65.5,157C 64.686,163.753 64.186,170.586 64,177.5C 60.9018,182.765 57.9018,182.765 55,177.5C 54.6667,173.5 54.3333,169.5 54,165.5C 52.9383,164.903 51.7716,164.57 50.5,164.5C 46.6748,165.164 43.0081,166.331 39.5,168C 31.6805,171.747 24.0138,174.913 16.5,177.5C 37.747,129.681 58.4136,81.6808 78.5,33.5 Z M 80.5,81.5 C 87.3347,81.8292 91.6681,85.3292 93.5,92C 90.3484,101.336 84.515,103.836 76,99.5C 70.6754,91.8109 72.1754,85.8109 80.5,81.5 Z M 123.5,89.5 C 135.863,89.0162 140.696,94.6829 138,106.5C 129.847,114.981 122.514,114.314 116,104.5C 114.812,97.5535 117.312,92.5535 123.5,89.5 Z M 55.5,128.5 C 60.2793,128.222 63.2793,130.388 64.5,135C 62.6224,140.774 58.9558,142.441 53.5,140C 49.8847,135.642 50.5514,131.808 55.5,128.5 Z"/></g>
    <g><path d="M 78.5,73.5 C 97.7206,73.5777 104.554,82.911 99,101.5C 91.5132,111.154 82.3465,112.987 71.5,107C 64.0373,99.6496 62.5373,91.1496 67,81.5C 70.1496,77.6893 73.983,75.0226 78.5,73.5 Z M 80.5,81.5 C 72.1754,85.8109 70.6754,91.8109 76,99.5C 84.515,103.836 90.3484,101.336 93.5,92C 91.6681,85.3292 87.3347,81.8292 80.5,81.5 Z"/></g>
    <g><path d="M 124.5,80.5 C 138.688,80.1944 146.355,87.0278 147.5,101C 146.774,113.56 140.107,120.393 127.5,121.5C 110.038,118.706 103.872,108.706 109,91.5C 112.782,85.7083 117.948,82.0416 124.5,80.5 Z M 123.5,89.5 C 117.312,92.5535 114.812,97.5535 116,104.5C 122.514,114.314 129.847,114.981 138,106.5C 140.696,94.6829 135.863,89.0162 123.5,89.5 Z"/></g>
    <g><path d="M 51.5,120.5 C 66.4579,118.36 73.2912,124.694 72,139.5C 68.4069,148.164 61.9069,151.33 52.5,149C 49.4605,147.969 46.9605,146.135 45,143.5C 41.2536,133.941 43.4203,126.275 51.5,120.5 Z M 55.5,128.5 C 50.5514,131.808 49.8847,135.642 53.5,140C 58.9558,142.441 62.6224,140.774 64.5,135C 63.2793,130.388 60.2793,128.222 55.5,128.5 Z"/></g>
</svg>
