<svg xmlns="http://www.w3.org/2000/svg" xmlns:xlink="http://www.w3.org/1999/xlink" version="1.1" viewBox="0 0 40 30" fill="currentColor"
 stroke-width="1.5" stroke="none" class="w-6 h-6" style="shape-rendering:geometricPrecision; text-rendering:geometricPrecision; image-rendering:optimizeQuality; fill-rule:evenodd; clip-rule:evenodd">
    <g><path d="M 17.5,-0.5 C 18.8333,-0.5 20.1667,-0.5 21.5,-0.5C 26.6132,2.55907 31.9466,5.3924 37.5,8C 38.9295,9.88026 38.5962,11.3803 36.5,12.5C 31.0611,9.69718 25.5611,7.03051 20,4.5C 14.7722,6.86381 9.60558,9.36381 4.5,12C 0.833333,12.6667 -0.166667,11.3333 1.5,8C 7.05344,5.3924 12.3868,2.55907 17.5,-0.5 Z"/></g>
    <g><path d="M 37.5,37.5 C 36.1667,37.5 34.8333,37.5 33.5,37.5C 33.2865,35.8561 33.6198,34.3561 34.5,33C 24.8391,32.5002 15.1724,32.3335 5.5,32.5C 5.5,34.1667 5.5,35.8333 5.5,37.5C 4.16667,37.5 2.83333,37.5 1.5,37.5C 1.5,30.1667 1.5,22.8333 1.5,15.5C 2.82207,15.33 3.98873,15.6634 5,16.5C 5.49885,20.4862 5.66551,24.4862 5.5,28.5C 16.1667,28.5 26.8333,28.5 37.5,28.5C 37.5,31.5 37.5,34.5 37.5,37.5 Z"/></g>
    <g><path d="M 7.5,17.5 C 9.72241,17.178 11.5557,17.8446 13,19.5C 13.7247,18.9415 14.5581,18.6082 15.5,18.5C 22.1389,19.5155 28.8056,20.3488 35.5,21C 37.25,22.7542 37.9167,24.9208 37.5,27.5C 27.1667,27.5 16.8333,27.5 6.5,27.5C 6.5,26.5 6.5,25.5 6.5,24.5C 8.97747,24.9492 10.9775,24.2825 12.5,22.5C 12.3333,22.1667 12.1667,21.8333 12,21.5C 7.0971,24.4375 5.5971,23.1042 7.5,17.5 Z"/></g>
</svg>
