<svg xmlns="http://www.w3.org/2000/svg" xmlns:xlink="http://www.w3.org/1999/xlink" version="1.1" viewBox="0 0 200 200" fill="currentColor"
     stroke-width="1.5" stroke="none" class="w-6 h-6" style="shape-rendering:geometricPrecision; text-rendering:geometricPrecision; image-rendering:optimizeQuality; fill-rule:evenodd; clip-rule:evenodd">
    <g><path d="M 76.5,-0.5 C 83.5,-0.5 90.5,-0.5 97.5,-0.5C 106.385,2.28256 114.052,7.11589 120.5,14C 127.369,12.431 134.369,11.7643 141.5,12C 155.357,14.1771 164.19,22.0104 168,35.5C 169.838,45.224 168.171,54.224 163,62.5C 155.768,68.5007 153.435,76.1674 156,85.5C 164.83,86.0737 173.663,86.9071 182.5,88C 187.757,90.2563 191.257,94.0896 193,99.5C 193.959,117.233 193.625,134.899 192,152.5C 189.778,156.388 186.612,159.221 182.5,161C 173.894,162.21 165.227,162.877 156.5,163C 155.929,172.163 155.096,181.33 154,190.5C 151.511,194.832 148.011,197.832 143.5,199.5C 105.833,199.5 68.1667,199.5 30.5,199.5C 23.2512,196.71 19.0846,191.376 18,183.5C 17.6667,145.167 17.3333,106.833 17,68.5C 6.73433,59.3683 3.06766,48.0349 6,34.5C 14.8586,13.5879 30.1919,6.92119 52,14.5C 55.1185,12.3851 57.9518,9.88513 60.5,7C 65.8036,4.1784 71.1369,1.6784 76.5,-0.5 Z M 81.5,12.5 C 96.7176,11.6076 108.051,17.7742 115.5,31C 118.167,31.6667 120.833,31.6667 123.5,31C 137.891,21.1309 148.391,24.2975 155,40.5C 154.517,54.9809 147.017,61.8143 132.5,61C 128.835,59.503 125.502,57.503 122.5,55C 120.5,54.3333 118.5,54.3333 116.5,55C 96.9279,80.9517 77.2613,80.9517 57.5,55C 55.5,54.3333 53.5,54.3333 51.5,55C 40.0423,64.5049 29.8756,63.3382 21,51.5C 16.8138,40.0186 20.3138,31.5186 31.5,26C 38.7894,24.2311 45.1227,25.8978 50.5,31C 53.1667,31.6667 55.8333,31.6667 58.5,31C 63.7025,21.6173 71.3692,15.4506 81.5,12.5 Z M 51.5,71.5 C 69.1085,89.0268 89.1085,92.1935 111.5,81C 115.299,78.2031 118.799,75.0364 122,71.5C 128.532,74.173 135.366,75.173 142.5,74.5C 142.667,110.502 142.5,146.502 142,182.5C 141.5,184.333 140.333,185.5 138.5,186C 104.167,186.667 69.8333,186.667 35.5,186C 33.6667,185.5 32.5,184.333 32,182.5C 31.5,146.502 31.3333,110.502 31.5,74.5C 36.1785,74.6658 40.8452,74.4992 45.5,74C 47.8516,73.7599 49.8516,72.9265 51.5,71.5 Z M 156.5,99.5 C 162.842,99.3338 169.175,99.5005 175.5,100C 177.667,100.833 179.167,102.333 180,104.5C 180.667,117.833 180.667,131.167 180,144.5C 179.535,145.931 178.701,147.097 177.5,148C 170.335,149.742 163.168,149.908 156,148.5C 155.196,132.122 155.363,115.789 156.5,99.5 Z"/></g>
    <g><path d="M 51.5,99.5 C 54.1873,99.3359 56.854,99.5026 59.5,100C 60.6667,100.5 61.5,101.333 62,102.5C 62.6667,121.167 62.6667,139.833 62,158.5C 59.4338,162.409 55.9338,163.409 51.5,161.5C 50.8076,160.975 50.3076,160.308 50,159.5C 49.3333,140.167 49.3333,120.833 50,101.5C 50.7172,100.956 51.2172,100.289 51.5,99.5 Z"/></g>
    <g><path d="M 82.5,99.5 C 85.1873,99.3359 87.854,99.5026 90.5,100C 91.6667,100.5 92.5,101.333 93,102.5C 93.6667,121.5 93.6667,140.5 93,159.5C 89,163.5 85,163.5 81,159.5C 80.3333,140.167 80.3333,120.833 81,101.5C 81.7172,100.956 82.2172,100.289 82.5,99.5 Z"/></g>
    <g><path d="M 114.5,99.5 C 118.007,98.9935 121.174,99.6602 124,101.5C 124.667,120.833 124.667,140.167 124,159.5C 120.075,163.41 116.075,163.41 112,159.5C 111.333,140.5 111.333,121.5 112,102.5C 112.698,101.309 113.531,100.309 114.5,99.5 Z"/></g>
</svg>
