<svg viewBox="0 0 500 500" xmlns="http://www.w3.org/2000/svg" fill="currentColor" stroke-width="1.5" stroke="none" class="w-6 h-6">
<path style="" d="M 434.931 129.302 L 477.429 129.703 L 444.372 154.751 L 456.097 195.832 L 421.279 172.19 L 386.443 195.722 L 399.056 155.76 L 365.323 129.082 L 407.426 128.734 L 421.066 89.052 Z M 246.407 70.675 C 342.499 111.689 349.585 190.166 349.585 190.166 C 360.832 239.929 321.988 290.592 321.988 290.592 C 321.988 290.592 362.503 323.275 422.432 343.067 C 422.432 343.067 371.652 306.174 379.228 265.106 L 455.526 264.673 C 518.8 254.659 522.976 199.124 522.976 199.124 L 523.449 93.199 C 513.364 33.96 457.784 26.34 457.784 26.34 L 308.539 26.423 C 259.684 31.063 246.407 70.675 246.407 70.675 Z"/>
<path style="" d="M 86.541 239.549 L 247.028 239.57 C 258.097 246.203 246.859 251.166 246.859 251.166 L 86.704 251.595 C 86.704 251.595 73.326 246.156 86.541 239.549 Z M 86.069 200.351 L 246.556 200.372 C 257.625 207.005 246.387 211.968 246.387 211.968 L 86.232 212.397 C 86.232 212.397 72.854 206.958 86.069 200.351 Z M 85.901 160.141 L 246.388 160.162 C 257.457 166.795 246.219 171.758 246.219 171.758 L 86.064 172.187 C 86.064 172.187 72.686 166.748 85.901 160.141 Z M 143.505 406.226 C 143.505 406.226 250.551 370.441 294.922 286.147 C 299.612 277.237 324.658 252.244 324.081 207.128 C 322.437 78.539 164.789 72.139 164.789 72.139 C 164.789 72.139 16.529 76.604 11.746 206.817 C 11.746 206.817 8.881 348.149 182.141 342.394 C 182.141 342.394 188.995 365.395 143.505 406.226 Z"/>
</svg>
