<svg preserveAspectRatio="none" xmlns="http://www.w3.org/2000/svg" viewBox="0 0 24 24" fill="none" stroke-width="1" stroke="none" class="w-6 h-6">
            <path
                d="M18.2140922,14.4800776 C18.3605388,14.3336309 18.5979757,14.3336309 18.7444223,14.4800776 C18.8908689,14.6265242 18.8908689,14.863961 18.7444223,15.0104076 L18.7444223,15.0104076 L18.4792573,15.2755727 C18.1257039,17.0433396 17.6837621,18.1923882 17.1534321,18.7227182 C16.3579369,19.5182134 15.2340147,19.4549513 14.5017816,18.7227182 C13.7695486,17.9904852 13.7062865,16.8665629 14.5017816,16.0710678 C15.0321117,15.5407377 16.1811602,15.098796 17.9489272,14.7452426 L17.9489272,14.7452426 Z M5.19481701,14.3302511 C5.2983704,14.1508913 5.5277168,14.0894381 5.70707653,14.1929915 L5.70707653,14.1929915 L6.03183606,14.3804915 C7.83087417,14.2644661 9.05515275,14.3939534 9.7046718,14.7689534 C10.6789504,15.3314534 10.9087364,16.4334524 10.3909694,17.3302511 C9.87320248,18.2270497 8.80395038,18.5790487 7.8296718,18.0165487 C7.18015275,17.6415487 6.45587417,16.646036 5.65683606,15.0300106 L5.65683606,15.0300106 L5.33207653,14.8425106 C5.1527168,14.7389572 5.09126362,14.5096108 5.19481701,14.3302511 Z M12.7928932,6.70710678 C13,6.70710678 13.1678932,6.875 13.1678932,7.08210678 L13.1678932,7.08210678 L13.1678932,7.45710678 C14.1678932,8.95710678 14.6678932,10.0821068 14.6678932,10.8321068 C14.6678932,11.9571068 13.8284271,12.7071068 12.7928932,12.7071068 C11.7573593,12.7071068 10.9178932,11.9571068 10.9178932,10.8321068 C10.9178932,10.0821068 11.4178932,8.95710678 12.4178932,7.45710678 L12.4178932,7.45710678 L12.4178932,7.08210678 C12.4178932,6.875 12.5857864,6.70710678 12.7928932,6.70710678 Z M17.8466448,5.72089865 C18.8468938,5.45288275 19.85187,5.96005731 20.1430415,7.04672386 C20.3371557,7.77116823 20.1453643,8.98724431 19.567667,10.6949521 L19.567667,10.6949521 L19.6647241,11.0571743 C19.7183273,11.2572241 19.5996089,11.4628504 19.3995591,11.5164536 C19.1995093,11.5700568 18.993883,11.4513384 18.9402798,11.2512886 L18.9402798,11.2512886 L18.8432226,10.8890664 C17.4890682,9.69899668 16.7149339,8.74173965 16.5208196,8.01729528 C16.2296482,6.93062873 16.8463959,5.98891455 17.8466448,5.72089865 Z M7.49437809,3.79712797 L7.56935035,3.8093293 C7.76940014,3.86293248 7.88811858,4.06855884 7.8345154,4.26860863 L7.8345154,4.26860863 L7.73745826,4.63083081 C8.31515551,6.3385386 8.506947,7.55461468 8.31283272,8.27905905 C8.02166129,9.3657256 7.01668503,9.87290016 6.01643608,9.60488426 C5.01618714,9.33686836 4.39943944,8.39515418 4.69061087,7.30848763 C4.88472515,6.58404326 5.65885949,5.62678622 7.01301389,4.43671653 L7.01301389,4.43671653 L7.11007103,4.07449435 C7.16367421,3.87444456 7.36930057,3.75572612 7.56935035,3.8093293 Z"
                id="Combined-Shape" stroke="#000000"></path>
</svg>
