<svg preserveAspectRatio="none" xmlns="http://www.w3.org/2000/svg" viewBox="0 0 24 24" fill="none" stroke-width="1" stroke="none" class="w-6 h-6">
<path d="M7.5,3 L12.5857864,3 C13.4912922,3 14.3597108,3.35971075 15,4 C15.6402892,4.64028925 16,5.50870783 16,6.41421356 L16,6.5 C16,7.47366596 16.3158004,8.42106723 16.9,9.2 L17.5,10 C18.4070133,11.2093511 18.4915181,12.8474698 17.7137606,14.1437323 L17.0289915,15.2850141 C16.3556728,16.407212 16,17.6913037 16,19 C16,20.1475914 15.1561585,21.1205488 14.020101,21.2828427 L9,22 L9,18.4142136 C9,17.5841666 9.30225695,16.7852832 9.84581887,16.1647144 L10.0151142,15.9848858 C10.6140246,15.3859754 10.8040507,14.4905318 10.5,13.7 L10.4666728,13.6133493 C10.1943574,12.9053292 10.1794652,12.126688 10.4201343,11.4122654 L10.5,11.2 C10.8025446,10.4738929 10.6369827,9.63698273 10.0807612,9.08076118 L10,9 C9.35971075,8.35971075 9,7.49129217 9,6.58578644 L9,4.5 C9,3.67157288 8.32842712,3 7.5,3 Z M12.5,20 C13.3284271,20 14,19.3284271 14,18.5 C14,17.6715729 13.3284271,17 12.5,17 C11.6715729,17 11,17.6715729 11,18.5 C11,19.3284271 11.6715729,20 12.5,20 Z M14,14.5 C15.1045695,14.5 16,13.6045695 16,12.5 C16,11.3954305 15.1045695,10.5 14,10.5 C12.8954305,10.5 12,11.3954305 12,12.5 C12,13.6045695 12.8954305,14.5 14,14.5 Z M12.5,8.5 C13.3284271,8.5 14,7.82842712 14,7 C14,6.17157288 13.3284271,5.5 12.5,5.5 C11.6715729,5.5 11,6.17157288 11,7 C11,7.82842712 11.6715729,8.5 12.5,8.5 Z" id="Combined-Shape" stroke="#000000"> </path>
</svg>
