<svg preserveAspectRatio="none" xmlns="http://www.w3.org/2000/svg" viewBox="0 0 30 30" fill="currentColor" stroke-width="1" stroke="currentColor" class="w-6 h-6">
    <path d="M16.75 3l-0.007-0.033c-0.005-0.056-0.016-0.107-0.032-0.156l0.001 0.005c-0.010-0.050-0.023-0.094-0.039-0.137l0.002 0.005c-0.024-0.044-0.050-0.082-0.079-0.117l0.001 0.001c-0.028-0.043-0.057-0.080-0.090-0.115l0 0c-0.031-0.026-0.066-0.049-0.103-0.070l-0.004-0.002c-0.041-0.030-0.088-0.057-0.138-0.079l-0.005-0.002-0.027-0.015c-0.033-0.007-0.071-0.011-0.111-0.013l-0.001-0c-0.034-0.010-0.075-0.019-0.116-0.024l-0.003-0-0.032 0.007c-0.055 0.005-0.106 0.016-0.155 0.032l0.005-0.001c-0.051 0.010-0.096 0.023-0.138 0.040l0.005-0.002c-0.043 0.024-0.080 0.049-0.114 0.077l0.001-0.001c-0.044 0.028-0.082 0.058-0.117 0.092l0-0c-0.025 0.031-0.048 0.065-0.069 0.101l-0.002 0.004c-0.031 0.042-0.058 0.089-0.079 0.139l-0.002 0.005-0.015 0.027-3.059 9.412h-9.897c-0.414 0-0.749 0.336-0.749 0.75 0 0.248 0.121 0.469 0.307 0.605l0.002 0.001 8.007 5.818-3.059 9.412c-0.023 0.069-0.037 0.149-0.037 0.232 0 0.414 0.336 0.75 0.75 0.75 0.165 0 0.318-0.053 0.442-0.144l-0.002 0.001 8.448-6.139c0.017-0.012 0.025-0.030 0.040-0.044 0.070-0.066 0.13-0.141 0.178-0.223l0.003-0.005c0.037-0.082 0.065-0.176 0.077-0.275l0-0.005c0.001-0.019 0.011-0.036 0.011-0.056z"></path>
</svg>
