<svg preserveAspectRatio="none" xmlns="http://www.w3.org/2000/svg" viewBox="0 0 24 24" fill="none" stroke-width="1" stroke="none" class="w-6 h-6">
<path d="M11,10.0731368 L11,3 L14,3 L14,10 L19.0439766,17.926249 C19.6369929,18.8581318 19.3622874,20.0943067 18.4304047,20.687323 C18.1095028,20.8915333 17.7370217,21 17.3566537,21 L7.65644946,21 C6.55187996,21 5.65644946,20.1045695 5.65644946,19 C5.65644946,18.6175735 5.76609246,18.2431642 5.97238319,17.9211484 L11,10.0731368 Z M7.85,15 L17.2,15 L19.0556007,17.9298958 C19.6466029,18.8630572 19.3692281,20.0986359 18.4360667,20.6896382 C18.1159656,20.8923688 17.7448615,21 17.3659625,21 L7.65966337,21 C6.55509387,21 5.65966337,20.1045695 5.65966337,19 C5.65966337,18.6170702 5.76959488,18.2421898 5.9763955,17.9199031 L7.85,15 Z M10,3 L15,3" id="Combined-Shape" stroke="#000000"> </path>
</svg>
