<svg preserveAspectRatio="none" xmlns="http://www.w3.org/2000/svg" viewBox="0 0 200 200" fill="currentColor" stroke-width="1.5" stroke="none" class="w-6 h-6" style="fill-rule:evenodd;">
    <path fill="current-color" d="M 81.5,-0.5 C 93.8333,-0.5 106.167,-0.5 118.5,-0.5C 139.139,5.24297 157.305,15.5763 173,30.5C 186.651,45.8023 195.485,63.469 199.5,83.5C 199.5,94.1667 199.5,104.833 199.5,115.5C 187.592,164.076 156.925,192.076 107.5,199.5C 102.5,199.5 97.5,199.5 92.5,199.5C 41.2237,192.225 10.2237,163.225 -0.5,112.5C -0.5,103.5 -0.5,94.5 -0.5,85.5C 9.41415,40.2519 36.7475,11.5853 81.5,-0.5 Z M 89.5,12.5 C 127.551,10.2717 156.384,25.2717 176,57.5C 194.847,98.5855 188.014,134.752 155.5,166C 128.791,186.451 99.4579,191.117 67.5,180C 32.7969,164.298 14.4635,137.298 12.5,99C 15.3046,57.8772 35.9713,30.2106 74.5,16C 79.6457,14.8752 84.6457,13.7085 89.5,12.5 Z"/>
    <path fill="current-color" d="M 125.5,106.5 C 111.862,123.771 101.862,143.104 95.5,164.5C 87.0373,138.21 90.5373,113.544 106,90.5C 119.029,73.0039 135.029,59.0039 154,48.5C 164.117,66.2567 165.117,84.5901 157,103.5C 145.482,127.192 129.316,147.192 108.5,163.5C 108.167,162.833 107.833,162.167 107.5,161.5C 111.508,142.476 117.508,124.143 125.5,106.5 Z"/>
    <path fill="current-color" d="M 45.5,51.5 C 67.8863,58.3863 83.3863,72.7196 92,94.5C 88.0507,103.353 85.0507,112.687 83,122.5C 81.4683,135.166 82.8016,147.499 87,159.5C 87.4652,160.931 88.2986,162.097 89.5,163C 89,163.5 88.5,164 88,164.5C 69.5035,151.156 55.5035,134.156 46,113.5C 37.6842,92.7512 37.5175,72.0845 45.5,51.5 Z"/>
</svg>
