<svg xmlns="http://www.w3.org/2000/svg" xmlns:xlink="http://www.w3.org/1999/xlink" version="1.1" viewBox="0 0 200 200" fill="currentColor"
     stroke-width="1.5" stroke="none" class="w-6 h-6" style="shape-rendering:geometricPrecision; text-rendering:geometricPrecision; image-rendering:optimizeQuality; fill-rule:evenodd; clip-rule:evenodd">
    <g><path d="M 80.5,-0.5 C 93.1667,-0.5 105.833,-0.5 118.5,-0.5C 162.031,11.0314 189.031,38.6981 199.5,82.5C 199.5,93.5 199.5,104.5 199.5,115.5C 189.173,161.161 161.173,189.161 115.5,199.5C 104.833,199.5 94.1667,199.5 83.5,199.5C 38.4651,190.131 10.4651,163.131 -0.5,118.5C -0.5,105.5 -0.5,92.5 -0.5,79.5C 11.2787,37.3877 38.2787,10.7211 80.5,-0.5 Z M 86.5,12.5 C 131.261,9.28087 162.761,27.9475 181,68.5C 193.851,110.606 183.018,145.106 148.5,172C 121.049,188.618 92.3819,190.951 62.5,179C 23.2448,157.655 7.07816,124.822 14,80.5C 24.524,43.1388 48.6906,20.4721 86.5,12.5 Z"/></g>
    <g><path d="M 125.5,106.5 C 111.862,123.771 101.862,143.104 95.5,164.5C 87.0373,138.21 90.5373,113.544 106,90.5C 119.029,73.0039 135.029,59.0039 154,48.5C 164.117,66.2567 165.117,84.5901 157,103.5C 145.482,127.192 129.316,147.192 108.5,163.5C 108.167,162.833 107.833,162.167 107.5,161.5C 111.508,142.476 117.508,124.143 125.5,106.5 Z"/></g>
    <g><path d="M 45.5,51.5 C 67.8863,58.3863 83.3863,72.7196 92,94.5C 88.0507,103.353 85.0507,112.687 83,122.5C 81.4683,135.166 82.8016,147.499 87,159.5C 87.4652,160.931 88.2986,162.097 89.5,163C 89,163.5 88.5,164 88,164.5C 69.5035,151.156 55.5035,134.156 46,113.5C 37.6842,92.7512 37.5175,72.0845 45.5,51.5 Z"/></g>
</svg>
