<svg preserveAspectRatio="none" xmlns="http://www.w3.org/2000/svg" viewBox="0 0 200 200" fill="currentColor" stroke-width="1.5" stroke="none" class="w-6 h-6" style="fill-rule:evenodd;">
   <path fill="current-color" d="M 187.5,-0.5 C 189.5,-0.5 191.5,-0.5 193.5,-0.5C 190.766,13.3963 188.599,27.3963 187,41.5C 181.367,55.7977 171.201,65.2977 156.5,70C 150.083,71.4157 143.75,73.0823 137.5,75C 134.036,79.4223 131.203,84.2557 129,89.5C 115.943,123.728 107.276,159.061 103,195.5C 102.338,196.984 101.504,198.317 100.5,199.5C 95.5,199.5 90.5,199.5 85.5,199.5C 84.6091,198.739 83.9424,197.739 83.5,196.5C 75.4475,154.955 64.2808,114.288 50,74.5C 39.6611,49.8023 25.3278,27.8023 7,8.5C 5.81288,6.95558 5.47954,5.28891 6,3.5C 13.5538,6.05494 20.3872,9.88827 26.5,15C 47.2906,32.7898 62.1239,54.6231 71,80.5C 78.3534,105.221 85.6868,129.888 93,154.5C 100.95,127.648 110.284,101.314 121,75.5C 128.423,58.4254 138.59,43.2588 151.5,30C 146.705,30.222 142.371,31.8887 138.5,35C 128.356,43.8059 120.523,54.3059 115,66.5C 111.061,41.8784 119.894,23.3784 141.5,11C 156.937,7.08506 172.271,3.25172 187.5,-0.5 Z"/>
</svg>
