<svg xmlns="http://www.w3.org/2000/svg" xmlns:xlink="http://www.w3.org/1999/xlink" version="1.1" viewBox="0 0 200 200" fill="currentColor"
     stroke-width="1.5" stroke="none" class="w-6 h-6" style="shape-rendering:geometricPrecision; text-rendering:geometricPrecision; image-rendering:optimizeQuality; fill-rule:evenodd; clip-rule:evenodd">
    <g><path d="M 199.5,55.5 C 199.5,56.1667 199.5,56.8333 199.5,57.5C 193.202,63.2972 187.035,69.2972 181,75.5C 153.173,49.7815 120.34,39.2815 82.5,44C 57.43,47.7312 35.7633,58.2312 17.5,75.5C 11.4796,69.8117 5.47959,64.1451 -0.5,58.5C -0.5,57.8333 -0.5,57.1667 -0.5,56.5C 43.6025,17.311 93.9358,6.81097 150.5,25C 168.811,32.1472 185.145,42.3138 199.5,55.5 Z"/></g>
    <g><path d="M 90.5,54.5 C 114.258,53.1061 136.258,58.6061 156.5,71C 162.298,74.966 167.631,79.466 172.5,84.5C 166.16,90.3406 159.993,96.3406 154,102.5C 130.015,81.8049 102.848,76.3049 72.5,86C 62.0967,89.9481 52.9301,95.7815 45,103.5C 38.6519,97.3189 32.4852,90.9855 26.5,84.5C 44.5769,67.4605 65.9102,57.4605 90.5,54.5 Z"/></g>
    <g><path d="M 98.5,92.5 C 116.447,92.8156 131.78,99.1489 144.5,111.5C 138.805,117.526 133.139,123.526 127.5,129.5C 108.833,114.833 90.1667,114.833 71.5,129.5C 65.3479,123.848 59.3479,118.015 53.5,112C 66.1996,99.9786 81.1996,93.4786 98.5,92.5 Z"/></g>
    <g><path d="M 95.5,130.5 C 116.296,131.127 126.129,141.794 125,162.5C 119.917,178.301 109.084,184.801 92.5,182C 78.1016,176.916 71.9349,166.749 74,151.5C 77.1236,140.208 84.2902,133.208 95.5,130.5 Z"/></g>
</svg>
